<?xml version="1.0" encoding="UTF-8" standalone="no"?>
<!DOCTYPE svg PUBLIC "-//W3C//DTD SVG 1.1//EN" "http://www.w3.org/Graphics/SVG/1.1/DTD/svg11.dtd">
<!-- Created with Vectornator (http://vectornator.io/) -->
<svg height="100%" stroke-miterlimit="10" style="fill-rule:nonzero;clip-rule:evenodd;stroke-linecap:round;stroke-linejoin:round;" version="1.1" viewBox="0 0 180 180" width="100%" xml:space="preserve" xmlns="http://www.w3.org/2000/svg" xmlns:xlink="http://www.w3.org/1999/xlink">
<defs>
<radialGradient cx="30.3635" cy="50.3329" gradientTransform="matrix(1.26736 0 0 1.26736 -5.68032 -12.5403)" gradientUnits="userSpaceOnUse" id="RadialGradient" r="23.3872">
<stop offset="0" stop-color="#7e300c"/>
<stop offset="1" stop-color="#2e1c0e"/>
</radialGradient>
</defs>
<g id="Poster">
<path d="M3.1612 3.24264L62.4414 3.24264L62.4414 99.2568L3.1612 99.2568L3.1612 3.24264Z" fill="url(#RadialGradient)" fill-rule="evenodd" opacity="1" stroke="none"/>
<path d="M8.14401 25.716L8.22091 16.0641L14.1896 25.6139" fill="none" opacity="1" stroke="#f77f00" stroke-linecap="round" stroke-linejoin="round" stroke-width="1"/>
<path d="M21.1708 16.3556L21.3702 25.7285L21.3276 20.8886L25.8546 20.7537L27.3526 16.5451" fill="none" opacity="1" stroke="#f77f00" stroke-linecap="round" stroke-linejoin="round" stroke-width="1"/>
<path d="M29.7135 16.9928L26.8276 25.5107L33.5047 25.5465L30.7156 21.9144L35.7563 22.0328" fill="none" opacity="1" stroke="#f77f00" stroke-linecap="round" stroke-linejoin="round" stroke-width="1"/>
<path d="M42.1181 16.1468L49.3829 24.77L49.3546 16.4566L41.2882 24.5181" fill="none" opacity="1" stroke="#f77f00" stroke-linecap="round" stroke-linejoin="round" stroke-width="1"/>
<path d="M52.162 17.3871L59.2527 17.4523L54.5118 22.3401L58.8091 25.0613" fill="none" opacity="1" stroke="#f77f00" stroke-linecap="round" stroke-linejoin="round" stroke-width="1"/>
<path d="M20.4199 55.6116L24.6016 55.6116L24.6016 77.0606L20.4199 77.0606L20.4199 55.6116Z" fill="#030101" fill-rule="evenodd" opacity="1" stroke="none"/>
<path d="M20.144 50.4553L24.8439 50.4553L24.8439 55.8558L20.144 55.8558L20.144 50.4553Z" fill="#eef583" fill-rule="evenodd" opacity="1" stroke="none"/>
<path d="M19.9359 48.1202L25.1756 48.1202L25.1756 50.8662L19.9359 50.8662L19.9359 48.1202Z" fill="#030101" fill-rule="evenodd" opacity="1" stroke="none"/>
<path d="M19.1533 56.6591L20.5369 56.6591L20.5369 64.9128L19.1533 64.9128L19.1533 56.6591Z" fill="#eef583" fill-rule="evenodd" opacity="1" stroke="none"/>
<path d="M24.4725 56.6714L25.8561 56.6714L25.8561 64.9251L24.4725 64.9251L24.4725 56.6714Z" fill="#eef583" fill-rule="evenodd" opacity="1" stroke="none"/>
<path d="M28.314 50.2672L34.996 50.2672L34.996 59.0651L28.314 59.0651L28.314 50.2672Z" fill="#c13803" fill-rule="evenodd" opacity="1" stroke="none"/>
<path d="M29.5369 56.7747L33.9814 56.7747L33.9814 67.2047L29.5369 67.2047L29.5369 56.7747Z" fill="#030101" fill-rule="evenodd" opacity="1" stroke="none"/>
<path d="M29.5825 67.1226L33.9662 67.1226L33.9662 76.9268L29.5825 76.9268L29.5825 67.1226Z" fill="#eef583" fill-rule="evenodd" opacity="1" stroke="none"/>
<path d="M29.5015 51.4702L34.0687 51.4702L34.0687 56.7759L29.5015 56.7759L29.5015 51.4702Z" fill="#eef583" fill-rule="evenodd" opacity="1" stroke="none"/>
<path d="M33.8157 57.9421L35.1992 57.9421L35.1992 66.1958L33.8157 66.1958L33.8157 57.9421Z" fill="#eef583" fill-rule="evenodd" opacity="1" stroke="none"/>
<path d="M28.3126 57.8864L29.6961 57.8864L29.6961 66.1401L28.3126 66.1401L28.3126 57.8864Z" fill="#eef583" fill-rule="evenodd" opacity="1" stroke="none"/>
<path d="M29.5814 75.6063L33.9717 75.6063L33.9717 76.9515L29.5814 76.9515L29.5814 75.6063Z" fill="#030101" fill-rule="evenodd" opacity="1" stroke="none"/>
<path d="M39.5413 60.2225L43.9859 60.2225L43.9859 73.7554L39.5413 73.7554L39.5413 60.2225Z" fill="#402f1d" fill-rule="evenodd" opacity="1" stroke="none"/>
<path d="M39.4612 73.754L43.9895 73.754L43.9895 76.6056L39.4612 76.6056L39.4612 73.754Z" fill="#f1f386" fill-rule="evenodd" opacity="1" stroke="none"/>
<path d="M39.5738 55.8127L44.0183 55.8127L44.0183 60.2816L39.5738 60.2816L39.5738 55.8127Z" fill="#f0f484" fill-rule="evenodd" opacity="1" stroke="none"/>
<path d="M39.503 49.3245L44.0637 49.3245L44.0637 56.0225L39.503 56.0225L39.503 49.3245Z" fill="#93310c" fill-rule="evenodd" opacity="1" stroke="none"/>
<path d="M38.3379 56.6825L39.7215 56.6825L39.7215 64.9362L38.3379 64.9362L38.3379 56.6825Z" fill="#93310c" fill-rule="evenodd" opacity="1" stroke="none"/>
<path d="M43.8994 56.7433L45.2829 56.7433L45.2829 64.997L43.8994 64.997L43.8994 56.7433Z" fill="#93310c" fill-rule="evenodd" opacity="1" stroke="none"/>
<path d="M37.5065 48.1631L40.667 48.1218L40.6148 45.0219L45.66 45.0236L45.65 51.0973L37.494 51.0929L37.5065 48.1631Z" fill="#000000" fill-rule="evenodd" opacity="1" stroke="none"/>
<path d="M21.5815 58.0147L23.4286 58.0147L23.4286 59.3542L21.5815 59.3542L21.5815 58.0147Z" fill="#eef583" fill-rule="evenodd" opacity="1" stroke="none"/>
<path d="M40.0565 52.298L43.436 52.298L43.436 53.3211L40.0565 53.3211L40.0565 52.298Z" fill="#000000" fill-rule="evenodd" opacity="1" stroke="none"/>
<path d="M41.4946 56.3389L41.9672 56.3389L41.9672 59.314L41.4946 59.314L41.4946 56.3389Z" fill="#eb493a" fill-rule="evenodd" opacity="1" stroke="none"/>
</g>
<clipPath id="ArtboardFrame">
<rect height="180" width="180" x="0" y="0"/>
</clipPath>
<g clip-path="url(#ArtboardFrame)" id="Shirt">
<path d="M44.0384 132.446C44.0384 132.446 34.0298 130.087 25.0999 132.707C16.1701 135.326 13.8994 136.913 8.80184 144.756C2.82775 153.947-2.13684 178.956-2.13684 178.956L28.573 179.512L34.51 156.762C34.51 156.762 35.4864 158.233 35.8384 164.241C36.1904 170.248 35.9181 180.793 35.9181 180.793L145.839 179.943C145.839 179.943 146.919 168.116 143.528 159.543C140.137 150.971 139.503 150.446 131.98 145.813C124.457 141.181 110.628 139.493 110.628 139.493L44.0384 132.446Z" fill="#868ea3" fill-rule="evenodd" opacity="1" stroke="none"/>
<path d="M44.6958 117.153C44.6958 117.153 65.5121 116.526 79.9457 118.455C94.3792 120.383 94.7824 120.635 102.43 124.867C110.078 129.1 110.536 135.385 110.536 135.385L109.053 144.6L44.6958 117.153Z" fill="#868ea3" fill-rule="evenodd" opacity="1" stroke="none"/>
<path d="M44.432 117.061C44.432 117.061 59.6416 122.615 73.0303 128.366C86.419 134.116 97.9869 140.064 97.9869 140.064L92.2854 156.717C92.2854 156.717 80.0546 149.254 66.987 143.28C53.9195 137.307 44.1064 132.341 44.1064 132.341L44.432 117.061Z" fill="#929cb5" fill-rule="evenodd" opacity="1" stroke="none"/>
<path d="M109.045 131.181L98.7268 139.924L104.374 155.046L109.128 144.444C109.128 144.444 110.308 139.173 110.287 135.858C110.266 132.542 109.045 131.181 109.045 131.181Z" fill="#929cb5" fill-rule="evenodd" opacity="1" stroke="none"/>
<path d="M108.56 131.569C108.56 131.569 103.707 123.223 94.2628 121.159C84.8184 119.095 78.4935 118.746 66.1299 117.757C53.7664 116.767 45.108 117.272 45.108 117.272" fill="none" opacity="1" stroke="#929cb5" stroke-linecap="round" stroke-linejoin="round" stroke-width="1"/>
<path d="M98.388 140.562L97.95 180.297" fill="none" opacity="1" stroke="#929cb5" stroke-linecap="round" stroke-linejoin="round" stroke-width="1"/>
<path d="M-1.95382 175.337L30.0567 175.724L29.0245 179.736L-2.28228 178.92L-1.95382 175.337Z" fill="#929cb5" fill-rule="evenodd" opacity="1" stroke="none"/>
<path d="M120.819 158.48L122.942 180.356" fill="none" opacity="1" stroke="#929cb5" stroke-linecap="round" stroke-linejoin="round" stroke-width="1"/>
<path d="M99.8535 153.458C99.8535 152.702 100.467 152.089 101.223 152.089C101.979 152.089 102.593 152.702 102.593 153.458C102.593 154.214 101.979 154.828 101.223 154.828C100.467 154.828 99.8535 154.214 99.8535 153.458Z" fill="#f9f9f9" fill-rule="evenodd" opacity="1" stroke="#929cb5" stroke-linecap="round" stroke-linejoin="round" stroke-width="0.3"/>
<path d="M99.9567 164.118C99.9567 163.362 100.57 162.749 101.326 162.749C102.083 162.749 102.696 163.362 102.696 164.118C102.696 164.875 102.083 165.488 101.326 165.488C100.57 165.488 99.9567 164.875 99.9567 164.118Z" fill="#f9f9f9" fill-rule="evenodd" opacity="1" stroke="#929cb5" stroke-linecap="round" stroke-linejoin="round" stroke-width="0.3"/>
<path d="M99.8842 175.672C99.8842 174.916 100.497 174.303 101.254 174.303C102.01 174.303 102.623 174.916 102.623 175.672C102.623 176.429 102.01 177.042 101.254 177.042C100.497 177.042 99.8842 176.429 99.8842 175.672Z" fill="#f9f9f9" fill-rule="evenodd" opacity="1" stroke="#929cb5" stroke-linecap="round" stroke-linejoin="round" stroke-width="0.3"/>
<path d="M88.7066 151.346C88.7066 150.59 89.3654 149.977 90.1779 149.977C90.9905 149.977 91.6492 150.59 91.6492 151.346C91.6492 152.102 90.9905 152.716 90.1779 152.716C89.3654 152.716 88.7066 152.102 88.7066 151.346Z" fill="#f9f9f9" fill-rule="evenodd" opacity="1" stroke="#929cb5" stroke-linecap="round" stroke-linejoin="round" stroke-width="0.3"/>
<path d="M104.436 148.484C104.436 147.728 104.821 147.115 105.297 147.115C105.772 147.115 106.158 147.728 106.158 148.484C106.158 149.241 105.772 149.854 105.297 149.854C104.821 149.854 104.436 149.241 104.436 148.484Z" fill="#f9f9f9" fill-rule="evenodd" opacity="1" stroke="#929cb5" stroke-linecap="round" stroke-linejoin="round" stroke-width="0.3"/>
<path d="M54.7706 160.076L72.4453 160.076L72.4453 177.078L54.7706 177.078L54.7706 160.076Z" fill="#868ea3" fill-rule="evenodd" opacity="1" stroke="#929cb5" stroke-linecap="round" stroke-linejoin="round" stroke-width="1"/>
<path d="M54.7588 160.007L63.7519 167.2L72.391 160.171L54.7588 160.007Z" fill="#868ea3" fill-rule="evenodd" opacity="1" stroke="#929cb5" stroke-linecap="round" stroke-linejoin="round" stroke-width="1"/>
</g>
<g id="Hat-back">
<path d="M6.13725 27.6253C5.03522 45.7507 57.7457 59.6365 80.7218 56.8777C103.698 54.1188 57.7469 29.4603 57.7469 29.4603C57.7469 29.4603 14.2548 22.0231 6.13725 27.6253Z" fill="#d17d41" fill-rule="nonzero" opacity="1" stroke="none"/>
<path d="M17.4199 28.0486C22.9484 41.4704 63.7529 54.6278 83.6404 54.6278C103.528 54.6278 59.9054 28.7833 59.9054 28.7833C59.9054 28.7833 11.8913 14.6267 17.4199 28.0486Z" fill="#db8e57" fill-rule="nonzero" opacity="1" stroke="none"/>
</g>
<g id="Calque-2">
<path d="M49.8675 19.4516C49.8675 19.4516 51.1997 12.0541 55.1111 9.45277C59.0225 6.85146 64.1002 6.70454 64.1002 6.70454L106.942 9.77564C106.942 9.77564 113.63 9.34259 117.885 13.8973C121.51 17.7758 120.947 24.1681 120.947 24.1681L123.176 71.9563L45.2518 64.2209L49.8675 19.4516Z" fill="#c0996e" fill-rule="evenodd" opacity="1" stroke="none"/>
<path d="M57.5898 33.9455C59.2521 32.8231 62.2594 32.9644 62.2594 32.9644L106.987 32.2737C106.987 32.2737 109.641 32.8129 111.263 34.1311C112.885 35.4494 113.5 37.5291 113.5 37.5291C113.5 37.5291 113.532 57.2737 114.365 60.1514C115.233 63.1506 116.108 66.2321 116.567 70.5238C117.025 74.8155 115.373 78.2002 115.373 78.2002C115.373 78.2002 111.306 91.3248 107.847 100.775C104.389 110.225 104.073 104.375 101.54 116.001C99.0064 127.627 97.9504 140.094 97.9504 140.094C97.9504 140.094 84.6873 133.31 72.5075 128.019C60.3278 122.728 49.2314 118.929 49.2314 118.929C49.2314 118.929 50.9151 116.946 51.7084 107.736C52.06 103.655 50.5147 94.3317 50.8412 89.983C51.9046 75.8204 51.3486 75.8803 52.5409 62.7481C53.7332 49.6159 55.6103 37.4541 55.6103 37.4541C55.6103 37.4541 55.9275 35.0679 57.5898 33.9455Z" fill="#cea8a8" fill-rule="evenodd" opacity="1" stroke="none"/>
<path d="M53.3433 67.7304C53.3433 67.7304 52.618 64.7114 51.0261 63.5267C49.4341 62.342 48.8072 62.323 46.933 62.7581C45.0589 63.1931 44.6473 62.9879 43.5294 65.267C42.4115 67.5462 42.1177 68.409 41.8434 71.6754C41.5691 74.9418 41.7257 75.1672 42.4323 78.3327C43.1389 81.4983 43.9493 82.1926 45.3303 84.7705C46.7114 87.3483 46.5695 87.3079 47.9564 88.644C49.3432 89.9801 50.8779 90.1148 50.8779 90.1148" fill="#cea8a8" fill-rule="evenodd" opacity="1" stroke="#967d79" stroke-linecap="round" stroke-linejoin="round" stroke-width="1"/>
<path d="M47.7559 76.4371C47.7559 74.2481 49.5191 72.8357 50.083 72.8357C50.6469 72.8357 50.5878 75.2789 50.5878 77.4679C50.5878 78.7196 50.9401 80.8749 50.2951 81.7631C49.6501 82.6512 48.2493 81.0206 48.0078 81.0206C47.4439 81.0206 47.7559 78.6261 47.7559 76.4371Z" fill="#967d79" fill-rule="evenodd" opacity="1" stroke="none"/>
<path d="M49.1819 66.4332C49.1819 66.4332 47.0176 67.9562 46.2183 70.1731C45.4191 72.3901 45.6664 75.5906 45.6664 75.5906L45.3201 79.3852" fill="none" opacity="1" stroke="#967d79" stroke-linecap="round" stroke-linejoin="round" stroke-width="1"/>
<path d="M115.596 72.2757C115.596 72.2757 117.067 69.0965 119.194 67.8446C121.322 66.5928 122.487 66.3926 124.105 67.2682C125.723 68.1439 126.372 68.6026 126.979 71.4267C127.586 74.2509 127.551 75.1683 126.534 78.5649C125.517 81.9615 124.616 81.5193 122.912 85.0132C121.208 88.5071 121.621 91.4979 119.718 92.5404C117.815 93.5829 116.406 93.7852 114.284 93.345C112.162 92.9049 111.23 90.7798 111.23 90.7798" fill="#cea8a8" fill-rule="evenodd" opacity="1" stroke="#967d79" stroke-linecap="round" stroke-linejoin="round" stroke-width="1"/>
<path d="M115.995 77.3347C115.087 78.0166 116.982 79.8662 116.782 82.0772C116.582 84.2882 115.473 85.0788 115.611 86.4558C115.749 87.8328 116.134 87.4652 117.327 87.2062C118.52 86.9472 118.928 86.2407 119.851 84.9718C120.774 83.7029 120.901 83.6971 120.892 82.2338C120.883 80.7706 121.19 80.5833 119.933 79.2895C118.675 77.9958 116.903 76.6529 115.995 77.3347Z" fill="#967d79" fill-rule="evenodd" opacity="1" stroke="none"/>
<path d="M119.43 71.5986C119.43 71.5986 120.909 72.2934 121.909 73.7423C122.91 75.1911 123.149 75.7304 123.432 77.3941C123.716 79.0577 123.043 80.3969 123.043 80.3969" fill="none" opacity="1" stroke="#967d79" stroke-linecap="round" stroke-linejoin="round" stroke-width="1"/>
<path d="M59.1275 57.618C59.1275 57.618 59.3357 55.2364 64.8047 55.089C70.2738 54.9415 81.0037 57.0283 81.0037 57.0283" fill="none" opacity="1" stroke="#c0996e" stroke-linecap="round" stroke-linejoin="round" stroke-width="1"/>
<path d="M88.231 58.949C88.231 58.949 91.0006 57.1525 95.7375 57.509C100.474 57.8656 107.179 60.3751 107.179 60.3751" fill="none" opacity="1" stroke="#c0996e" stroke-linecap="round" stroke-linejoin="round" stroke-width="1"/>
<path d="M62.2803 65.8523C63.3513 67.1584 67.3985 68.3752 70.875 68.4844C74.3515 68.5936 75.3278 67.7084 76.1863 66.2892C77.0448 64.8699 76.7079 63.5646 74.3091 62.8074C71.9104 62.0501 69.5984 62.4988 66.5912 63.2601C63.584 64.0213 61.2094 64.5462 62.2803 65.8523Z" fill="#ffffff" fill-rule="evenodd" opacity="1" stroke="none"/>
<path d="M90.5594 68.6795C91.6303 69.9856 94.6132 71.3018 98.0897 71.411C101.566 71.5203 102.564 70.3076 103.423 68.8883C104.281 67.4691 100.618 64.9022 98.2193 64.1449C95.8205 63.3876 93.9086 63.0252 90.9014 63.7865C87.8942 64.5477 89.4884 67.3735 90.5594 68.6795Z" fill="#ffffff" fill-rule="evenodd" opacity="1" stroke="none"/>
<path d="M67.9097 65.0613C67.9097 63.8227 69.0111 62.8186 70.3698 62.8186C71.7284 62.8186 72.8298 63.8227 72.8298 65.0613C72.8298 66.2999 71.8086 68.1729 70.4499 68.1729C69.0913 68.1729 67.9097 66.2999 67.9097 65.0613Z" fill="#000000" fill-rule="evenodd" opacity="1" stroke="none"/>
<path d="M92.3092 66.2295C92.3092 64.9909 93.4106 63.9868 94.7692 63.9868C96.1279 63.9868 97.2293 64.9909 97.2293 66.2295C97.2293 67.4681 96.2457 70.1848 94.887 70.1848C93.5284 70.1848 92.3092 67.4681 92.3092 66.2295Z" fill="#000000" fill-rule="evenodd" opacity="1" stroke="none"/>
<path d="M93.3903 65.3504C93.3903 65.077 93.6421 64.8553 93.9528 64.8553C94.2634 64.8553 94.5152 65.077 94.5152 65.3504C94.5152 65.6238 94.2634 65.8455 93.9528 65.8455C93.6421 65.8455 93.3903 65.6238 93.3903 65.3504Z" fill="#ffffff" fill-rule="evenodd" opacity="1" stroke="none"/>
<path d="M69.2479 64.199C69.2479 63.9255 69.4997 63.7038 69.8104 63.7038C70.121 63.7038 70.3728 63.9255 70.3728 64.199C70.3728 64.4724 70.121 64.6941 69.8104 64.6941C69.4997 64.6941 69.2479 64.4724 69.2479 64.199Z" fill="#ffffff" fill-rule="evenodd" opacity="1" stroke="none"/>
<path d="M59.9929 65.5903C59.9929 65.5903 65.2805 63.2191 68.4953 62.5048C71.7102 61.7905 71.8546 62.0725 73.9604 62.4219C76.0662 62.7714 77.5371 65.2563 77.5371 65.2563" fill="none" opacity="1" stroke="#000000" stroke-linecap="round" stroke-linejoin="round" stroke-width="1"/>
<path d="M88.728 64.3779C88.728 64.3779 90.8595 63.4171 93.0719 63.22C95.2843 63.023 95.953 63.0156 97.5777 63.5898C100.901 64.7645 105.93 69.0081 105.93 69.0081" fill="none" opacity="1" stroke="#000000" stroke-linecap="round" stroke-linejoin="round" stroke-width="1"/>
<path d="M79.6994 60.4133L78.2322 73.5739C78.2322 73.5739 73.4783 77.6976 72.5071 80.833C71.536 83.9683 74.4966 84.3762 74.4966 84.3762L80.8139 84.5514L88.3903 84.7104C88.3903 84.7104 91.0391 84.3903 90.3122 81.2767C89.5852 78.1631 85.9582 73.9298 85.9582 73.9298L87.0488 60.4856" fill="#dcb2b2" fill-rule="evenodd" opacity="1" stroke="#967d79" stroke-linecap="round" stroke-linejoin="round" stroke-width="1"/>
<path d="M74.6891 82.9597C74.6891 82.2859 76.0614 80.5864 76.851 80.5864C77.6406 80.5864 79.3379 80.5577 79.3379 81.2316C79.3379 81.9054 79.6291 83.345 78.8395 83.345C78.0498 83.345 74.6891 83.6335 74.6891 82.9597Z" fill="#967d79" fill-rule="evenodd" opacity="1" stroke="none"/>
<path d="M83.569 81.9157C83.569 81.2419 84.3981 80.231 85.1877 80.231C85.9773 80.231 87.5521 82.1449 87.5521 82.8187C87.5521 83.4925 86.5616 83.8615 85.772 83.8615C84.9824 83.8615 83.569 82.5896 83.569 81.9157Z" fill="#967d79" fill-rule="evenodd" opacity="1" stroke="none"/>
<path d="M71.3595 97.2573C71.3595 97.2573 76.4279 94.8324 81.1448 94.7862C85.8617 94.7401 90.2273 97.0728 90.2273 97.0728L80.8846 95.9208L71.3595 97.2573Z" fill="#967d79" fill-rule="evenodd" opacity="1" stroke="#967d79" stroke-linecap="round" stroke-linejoin="round" stroke-width="1"/>
<path d="M71.8359 106.507C71.8359 106.507 72.7961 103.38 76.1563 102.42C79.5166 101.46 81.7907 101.429 85.2768 102.666C88.763 103.903 89.8617 106.848 89.8617 106.848" fill="none" opacity="1" stroke="#967d79" stroke-linecap="round" stroke-linejoin="round" stroke-width="1"/>
<path d="M57.3007 100.38L63.6621 109.62C63.6621 109.62 68.4586 114.282 75.0232 116.155C81.5878 118.027 89.9205 117.11 89.9205 117.11C89.9205 117.11 97.6467 114.503 102.518 108.779C107.388 103.056 108.213 97.6397 108.213 97.6397" fill="none" opacity="1" stroke="#967d79" stroke-linecap="round" stroke-linejoin="round" stroke-width="1"/>
</g>
<g clip-path="url(#ArtboardFrame)" id="Calque-1">
<path d="M3.05404 189.57C-2.39145 187.926-0.400665 179.118-0.400665 179.118L71.3775 149.283C71.3775 149.283 74.961 148.591 79.9218 142.806C81.6976 140.736 81.7661 136.891 84.0228 133.424C87.9046 127.461 88.2492 129.141 90.9592 124.939C93.6693 120.737 91.4841 117.591 94.2557 116.552C97.2357 115.435 100.973 115.806 99.8915 121.193C98.8098 126.58 94.3526 131.067 94.3526 131.067C94.3526 131.067 95.3897 129.213 102.217 132.428C109.274 135.752 104.733 135.021 105.913 144.514C107.092 154.006 100.539 164.378 100.539 164.378C100.539 164.378 73.7897 165.871 72.8767 165.992C59.3896 167.773 50.5294 179.593 26.7187 186.129C15.8343 189.117 8.49953 191.213 3.05404 189.57Z" fill="#cea8a8" fill-rule="evenodd" opacity="1" stroke="#967d79" stroke-linecap="round" stroke-linejoin="round" stroke-width="1"/>
<path d="M94.1854 140.775C94.1854 140.775 98.1291 141.861 99.9513 141.578C100.824 141.442 101.632 141.299 102.329 141.166C103.841 140.877 104.832 140.638 104.832 140.638" fill="none" opacity="1" stroke="#967d79" stroke-linecap="round" stroke-linejoin="round" stroke-width="1"/>
<path d="M93.6282 149.421C93.6282 149.421 94.3012 150.159 98.7866 150.373C103.272 150.587 105.134 149.613 105.134 149.613" fill="none" opacity="1" stroke="#967d79" stroke-linecap="round" stroke-linejoin="round" stroke-width="1"/>
<path d="M92.9502 158.57C92.9502 158.57 95.8037 159.404 96.6853 159.235C100.336 158.533 103.414 156.758 103.414 156.758" fill="none" opacity="1" stroke="#967d79" stroke-linecap="round" stroke-linejoin="round" stroke-width="1"/>
<path d="M94.2503 131.443C94.2503 131.443 95.7531 133.128 97.6363 134.518C99.5195 135.909 101.664 135.993 100.778 136.904C99.8917 137.814 99.2903 136.945 97.1296 136.324C94.9689 135.702 94.1196 134.728 94.1196 134.728L94.2503 131.443Z" fill="#967d79" fill-rule="evenodd" opacity="1" stroke="#967d79" stroke-linecap="round" stroke-linejoin="round" stroke-width="1"/>
<path d="M95.0351 118.264C95.9154 117.493 96.9631 117.434 97.4176 118.392C97.8721 119.35 96.4185 122.116 96.4185 122.116L93.8965 121.48C93.8965 121.48 94.1549 119.036 95.0351 118.264Z" fill="#dcb2b2" fill-rule="evenodd" opacity="1" stroke="none"/>
</g>
<g clip-path="url(#ArtboardFrame)" id="Computer">
<path d="M141.678 34.3656L127.885 158.233L126.089 150.982L138.985 39.4155L141.678 34.3656Z" fill="#d9d1c7" fill-rule="evenodd" opacity="1" stroke="none"/>
<path d="M185.626 38.5837L141.369 34.3519L127.576 158.209L139.322 159.808C139.81 159.897 140.405 160.104 140.831 160.529C141.37 161.065 141.711 161.716 141.709 162.21L141.971 177.737C141.971 177.737 141.98 178.802 142.448 179.359C142.915 179.915 143.841 179.964 143.841 179.964L156.124 180.032C156.135 181.663 155.985 181.66 157.947 181.699L162.592 181.707C164.435 181.663 164.464 181.694 164.471 180.038L185.736 180.082L185.626 38.5837Z" fill="#d3c9bf" fill-rule="evenodd" opacity="1" stroke="none"/>
<path d="M149.6 35.4325L136.522 148.404C136.41 149.313 136.458 149.392 137.632 149.514L149.362 150.934C150.615 151.114 151.708 152.218 151.829 153.405L152.734 179.398" fill="none" opacity="1" stroke="#63524a" stroke-linecap="square" stroke-linejoin="round" stroke-width="1"/>
<path d="M159.489 166.41L186.32 166.415" fill="none" opacity="1" stroke="#281a0e" stroke-linecap="round" stroke-linejoin="round" stroke-width="1"/>
<path d="M182.664 165.794L185.813 165.794L185.813 167.034L182.664 167.034L182.664 165.794Z" fill="#a2938c" fill-rule="evenodd" opacity="1" stroke="none"/>
<path d="M169.39 165.786L172.539 165.786L172.539 167.03L169.39 167.03L169.39 165.786Z" fill="#a2938c" fill-rule="evenodd" opacity="1" stroke="none"/>
<path d="M159.485 168.256L186.316 168.262" fill="none" opacity="1" stroke="#281a0e" stroke-linecap="round" stroke-linejoin="round" stroke-width="1"/>
<path d="M182.66 167.645L185.809 167.645L185.809 168.881L182.66 168.881L182.66 167.645Z" fill="#a2938c" fill-rule="evenodd" opacity="1" stroke="none"/>
<path d="M169.385 167.633L172.535 167.633L172.535 168.877L169.385 168.877L169.385 167.633Z" fill="#a2938c" fill-rule="evenodd" opacity="1" stroke="none"/>
<path d="M159.505 170.221L186.336 170.227" fill="none" opacity="1" stroke="#281a0e" stroke-linecap="round" stroke-linejoin="round" stroke-width="1"/>
<path d="M182.68 169.604L185.829 169.604L185.829 170.846L182.68 170.846L182.68 169.604Z" fill="#a2938c" fill-rule="evenodd" opacity="1" stroke="none"/>
<path d="M169.406 169.597L172.555 169.597L172.555 170.841L169.406 170.841L169.406 169.597Z" fill="#a2938c" fill-rule="evenodd" opacity="1" stroke="none"/>
<path d="M159.527 172.34L186.357 172.345" fill="none" opacity="1" stroke="#281a0e" stroke-linecap="round" stroke-linejoin="round" stroke-width="1"/>
<path d="M182.702 171.724L185.851 171.724L185.851 172.965L182.702 172.965L182.702 171.724Z" fill="#a2938c" fill-rule="evenodd" opacity="1" stroke="none"/>
<path d="M169.427 171.716L172.576 171.716L172.576 172.96L169.427 172.96L169.427 171.716Z" fill="#a2938c" fill-rule="evenodd" opacity="1" stroke="none"/>
<path d="M159.525 174.275L186.356 174.28" fill="none" opacity="1" stroke="#281a0e" stroke-linecap="round" stroke-linejoin="round" stroke-width="1"/>
<path d="M182.7 173.664L185.849 173.664L185.849 174.899L182.7 174.899L182.7 173.664Z" fill="#a2938c" fill-rule="evenodd" opacity="1" stroke="none"/>
<path d="M169.426 173.651L172.575 173.651L172.575 174.895L169.426 174.895L169.426 173.651Z" fill="#a2938c" fill-rule="evenodd" opacity="1" stroke="none"/>
</g>
<g clip-path="url(#ArtboardFrame)" id="Mouse">
<path d="M84.1179 173.233L96.1266 167.778L124.863 174.329L124.785 180.435L84.2084 180.119L84.1179 173.233Z" fill="#d3c9bf" fill-rule="evenodd" opacity="1" stroke="none"/>
<path d="M96.0501 167.76L113.451 167.54L139.222 173.513L124.939 174.406L96.0501 167.76Z" fill="#a2938c" fill-rule="evenodd" opacity="1" stroke="none"/>
<path d="M139.151 173.514L124.869 174.385L124.777 180.462L139.421 179.584L139.151 173.514Z" fill="#d9d1c7" fill-rule="evenodd" opacity="1" stroke="none"/>
<path d="M124.871 173.651L133.624 173.145L124.833 170.93L117.166 171.846L124.871 173.651Z" fill="#d3c9bf" fill-rule="evenodd" opacity="1" stroke="none"/>
<path d="M117.181 171.848L117.175 172.175L124.866 173.981L124.868 173.653L117.181 171.848Z" fill="#d9d1c7" fill-rule="evenodd" opacity="1" stroke="none"/>
<path d="M133.599 173.416L133.594 173.139L124.848 173.656L124.849 173.976L133.599 173.416Z" fill="#d9d1c7" fill-rule="evenodd" opacity="1" stroke="none"/>
<path d="M131.309 178.172C131.309 177.454 131.909 176.871 132.648 176.871C133.388 176.871 133.988 177.454 133.988 178.172C133.988 178.891 133.388 179.473 132.648 179.473C131.909 179.473 131.309 178.891 131.309 178.172Z" fill="#63524a" fill-rule="evenodd" opacity="1" stroke="none"/>
<path d="M131.655 178.201C131.655 177.619 132.14 177.148 132.739 177.148C133.338 177.148 133.823 177.619 133.823 178.201C133.823 178.782 133.338 179.254 132.739 179.254C132.14 179.254 131.655 178.782 131.655 178.201Z" fill="#a2938c" fill-rule="evenodd" opacity="1" stroke="none"/>
<path d="M131.95 178.211C131.95 177.732 132.35 177.344 132.843 177.344C133.336 177.344 133.736 177.732 133.736 178.211C133.736 178.69 133.336 179.078 132.843 179.078C132.35 179.078 131.95 178.69 131.95 178.211Z" fill="#63524a" fill-rule="evenodd" opacity="1" stroke="none"/>
<path d="M162.494 176.021L165.312 176.021L165.312 177.242L162.494 177.242L162.494 176.021Z" fill="#281a0e" fill-rule="evenodd" opacity="1" stroke="none"/>
<path d="M162.991 176.235L164.838 176.235L164.838 177.048L162.991 177.048L162.991 176.235Z" fill="#d3c9bf" fill-rule="evenodd" opacity="1" stroke="none"/>
<path d="M132.896 178.236C132.896 178.236 134.789 177.581 136.23 177.831C137.691 178.084 138.11 178.592 139.083 178.778C141.543 179.248 142.563 179.266 145.321 179.344C148.079 179.421 148.374 179.176 149.751 179.142C151.84 179.092 151.838 179.704 154.464 179.962C157.09 180.22 157.903 180.947 160.256 180.174C162.61 179.402 163.879 176.872 163.879 176.872" fill="none" opacity="1" stroke="#63524a" stroke-linecap="round" stroke-linejoin="round" stroke-width="1"/>
</g>
<g clip-path="url(#ArtboardFrame)" id="Hat-front">
<path d="M50.8707 25.806C50.8707 25.806 48.8407-24.6431 89.8484-22.6934C130.856-20.7437 122.178 32.8308 122.178 32.8308" fill="#eab38d" fill-rule="nonzero" opacity="1" stroke="none"/>
<path d="M6.1175 27.6369C6.1175 27.6369 15.9902 8.70822 80.9632 19.4398C145.936 30.1715 162.005 45.2083 161.811 52.6288C161.617 60.0493 144.711 65.9712 117.129 64.444C89.5471 62.9169 70.6588 52.505 48.3277 39.2003C25.9967 25.8955 6.1175 27.6369 6.1175 27.6369Z" fill="#eab38d" fill-rule="nonzero" opacity="1" stroke="none"/>
<path d="M51.9318 12.3111C51.9318 12.3111 71.1026 19.4106 88.8355 22.268C106.568 25.1254 122.945 22.268 122.945 22.268C122.945 22.268 123.125 27.5832 122.945 30.2238C122.766 32.8645 121.335 36.7287 121.335 36.7287C121.335 36.7287 104.923 37.605 86.8998 35.102C68.877 32.599 50.8542 25.7869 50.8542 25.7869C50.8542 25.7869 50.8922 21.9311 51.1616 18.6249C51.431 15.3187 51.9318 12.3111 51.9318 12.3111Z" fill="#fff345" fill-rule="nonzero" opacity="1" stroke="none"/>
<path d="M115.432 32.3342C113.113 30.7041 115.007 24.0135 119.663 17.3903C124.319 10.7671 129.973 6.71942 132.292 8.34956C134.611 9.9797 132.717 16.6703 128.061 23.2935C123.405 29.9167 117.75 33.9644 115.432 32.3342Z" fill="#fff345" fill-rule="nonzero" opacity="1" stroke="none"/>
<path d="M114.009 28.7417C115.653 26.433 122.332 28.3691 128.926 33.0662C135.52 37.7632 139.533 43.4425 137.888 45.7512C136.244 48.06 129.565 46.1238 122.971 41.4268C116.377 36.7298 112.364 31.0505 114.009 28.7417Z" fill="#fff345" fill-rule="nonzero" opacity="1" stroke="none"/>
<path d="M109.084 30.1664C109.084 26.2562 112.254 23.0863 116.165 23.0863C120.075 23.0863 123.245 26.2562 123.245 30.1664C123.245 34.0766 120.075 37.2465 116.165 37.2465C112.254 37.2465 109.084 34.0766 109.084 30.1664Z" fill="#fcf9f6" fill-rule="nonzero" opacity="1" stroke="none"/>
</g>
</svg>
