<?xml version="1.0" encoding="UTF-8" standalone="no"?>
<!DOCTYPE svg PUBLIC "-//W3C//DTD SVG 1.1//EN" "http://www.w3.org/Graphics/SVG/1.1/DTD/svg11.dtd">
<!-- Created with Vectornator (http://vectornator.io/) -->
<svg height="100%" stroke-miterlimit="10" style="fill-rule:nonzero;clip-rule:evenodd;stroke-linecap:round;stroke-linejoin:round;" version="1.1" viewBox="0 0 180 180" width="100%" xml:space="preserve" xmlns="http://www.w3.org/2000/svg" xmlns:vectornator="http://vectornator.io" xmlns:xlink="http://www.w3.org/1999/xlink">
<defs>
<radialGradient cx="30.3635" cy="50.3329" gradientTransform="matrix(1.26736 0 0 1.26736 -5.68032 -12.5403)" gradientUnits="userSpaceOnUse" id="RadialGradient" r="23.3872">
<stop offset="0" stop-color="#7e300c"/>
<stop offset="1" stop-color="#2e1c0e"/>
</radialGradient>
<linearGradient gradientTransform="matrix(0.58155 -0.180372 0.1799 0.556397 -126.233 -195.957)" gradientUnits="userSpaceOnUse" id="LinearGradient" x1="191.17" x2="285.83" y1="408.39" y2="539.55">
<stop offset="0" stop-color="#ff1010"/>
<stop offset="1" stop-color="#000000"/>
</linearGradient>
<linearGradient gradientTransform="matrix(0.58155 -0.180372 0.1799 0.556397 -126.233 -195.957)" gradientUnits="userSpaceOnUse" id="LinearGradient_2" x1="191.17" x2="325.83" y1="408.39" y2="623.12">
<stop offset="0" stop-color="#ff1010"/>
<stop offset="1" stop-color="#000000"/>
</linearGradient>
<linearGradient gradientTransform="matrix(0.58155 -0.180372 0.1799 0.556397 -126.233 -195.957)" gradientUnits="userSpaceOnUse" id="LinearGradient_3" x1="191.17" x2="368.62" y1="408.39" y2="664.58">
<stop offset="0" stop-color="#ff1010"/>
<stop offset="1" stop-color="#000000"/>
</linearGradient>
</defs>
<g id="Poster" vectornator:layerName="Poster">
<path d="M3.1612 3.24264L62.4414 3.24264L62.4414 99.2568L3.1612 99.2568L3.1612 3.24264Z" fill="url(#RadialGradient)" fill-rule="nonzero" opacity="1" stroke="none"/>
<path d="M8.14401 25.716L8.22091 16.0641L14.1896 25.6139" fill="none" opacity="1" stroke="#f77f00" stroke-linecap="round" stroke-linejoin="round" stroke-width="1"/>
<path d="M21.1708 16.3556L21.3702 25.7285L21.3276 20.8886L25.8546 20.7537L27.3526 16.5451" fill="none" opacity="1" stroke="#f77f00" stroke-linecap="round" stroke-linejoin="round" stroke-width="1"/>
<path d="M29.7135 16.9928L26.8276 25.5107L33.5047 25.5465L30.7156 21.9144L35.7563 22.0328" fill="none" opacity="1" stroke="#f77f00" stroke-linecap="round" stroke-linejoin="round" stroke-width="1"/>
<path d="M42.1181 16.1468L49.3829 24.77L49.3546 16.4566L41.2882 24.5181" fill="none" opacity="1" stroke="#f77f00" stroke-linecap="round" stroke-linejoin="round" stroke-width="1"/>
<path d="M52.162 17.3871L59.2527 17.4523L54.5118 22.3401L58.8091 25.0613" fill="none" opacity="1" stroke="#f77f00" stroke-linecap="round" stroke-linejoin="round" stroke-width="1"/>
<path d="M20.4199 55.6116L24.6016 55.6116L24.6016 77.0606L20.4199 77.0606L20.4199 55.6116Z" fill="#030101" fill-rule="nonzero" opacity="1" stroke="none"/>
<path d="M20.144 50.4553L24.8439 50.4553L24.8439 55.8558L20.144 55.8558L20.144 50.4553Z" fill="#eef583" fill-rule="nonzero" opacity="1" stroke="none"/>
<path d="M19.9359 48.1202L25.1756 48.1202L25.1756 50.8662L19.9359 50.8662L19.9359 48.1202Z" fill="#030101" fill-rule="nonzero" opacity="1" stroke="none"/>
<path d="M19.1533 56.6591L20.5369 56.6591L20.5369 64.9128L19.1533 64.9128L19.1533 56.6591Z" fill="#eef583" fill-rule="nonzero" opacity="1" stroke="none"/>
<path d="M24.4725 56.6714L25.8561 56.6714L25.8561 64.9251L24.4725 64.9251L24.4725 56.6714Z" fill="#eef583" fill-rule="nonzero" opacity="1" stroke="none"/>
<path d="M28.314 50.2672L34.996 50.2672L34.996 59.0651L28.314 59.0651L28.314 50.2672Z" fill="#c13803" fill-rule="nonzero" opacity="1" stroke="none"/>
<path d="M29.5369 56.7747L33.9814 56.7747L33.9814 67.2047L29.5369 67.2047L29.5369 56.7747Z" fill="#030101" fill-rule="nonzero" opacity="1" stroke="none"/>
<path d="M29.5825 67.1226L33.9662 67.1226L33.9662 76.9268L29.5825 76.9268L29.5825 67.1226Z" fill="#eef583" fill-rule="nonzero" opacity="1" stroke="none"/>
<path d="M29.5015 51.4702L34.0687 51.4702L34.0687 56.7759L29.5015 56.7759L29.5015 51.4702Z" fill="#eef583" fill-rule="nonzero" opacity="1" stroke="none"/>
<path d="M33.8157 57.9421L35.1992 57.9421L35.1992 66.1958L33.8157 66.1958L33.8157 57.9421Z" fill="#eef583" fill-rule="nonzero" opacity="1" stroke="none"/>
<path d="M28.3126 57.8864L29.6961 57.8864L29.6961 66.1401L28.3126 66.1401L28.3126 57.8864Z" fill="#eef583" fill-rule="nonzero" opacity="1" stroke="none"/>
<path d="M29.5814 75.6063L33.9717 75.6063L33.9717 76.9515L29.5814 76.9515L29.5814 75.6063Z" fill="#030101" fill-rule="nonzero" opacity="1" stroke="none"/>
<path d="M39.5413 60.2225L43.9859 60.2225L43.9859 73.7554L39.5413 73.7554L39.5413 60.2225Z" fill="#402f1d" fill-rule="nonzero" opacity="1" stroke="none"/>
<path d="M39.4612 73.754L43.9895 73.754L43.9895 76.6056L39.4612 76.6056L39.4612 73.754Z" fill="#f1f386" fill-rule="nonzero" opacity="1" stroke="none"/>
<path d="M39.5738 55.8127L44.0183 55.8127L44.0183 60.2816L39.5738 60.2816L39.5738 55.8127Z" fill="#f0f484" fill-rule="nonzero" opacity="1" stroke="none"/>
<path d="M39.503 49.3245L44.0637 49.3245L44.0637 56.0225L39.503 56.0225L39.503 49.3245Z" fill="#93310c" fill-rule="nonzero" opacity="1" stroke="none"/>
<path d="M38.3379 56.6825L39.7215 56.6825L39.7215 64.9362L38.3379 64.9362L38.3379 56.6825Z" fill="#93310c" fill-rule="nonzero" opacity="1" stroke="none"/>
<path d="M43.8994 56.7433L45.2829 56.7433L45.2829 64.997L43.8994 64.997L43.8994 56.7433Z" fill="#93310c" fill-rule="nonzero" opacity="1" stroke="none"/>
<path d="M37.5065 48.1631L40.667 48.1218L40.6148 45.0219L45.66 45.0236L45.65 51.0973L37.494 51.0929L37.5065 48.1631Z" fill="#000000" fill-rule="nonzero" opacity="1" stroke="none"/>
<path d="M21.5815 58.0147L23.4286 58.0147L23.4286 59.3542L21.5815 59.3542L21.5815 58.0147Z" fill="#eef583" fill-rule="nonzero" opacity="1" stroke="none"/>
<path d="M40.0565 52.298L43.436 52.298L43.436 53.3211L40.0565 53.3211L40.0565 52.298Z" fill="#000000" fill-rule="nonzero" opacity="1" stroke="none"/>
<path d="M41.4946 56.3389L41.9672 56.3389L41.9672 59.314L41.4946 59.314L41.4946 56.3389Z" fill="#eb493a" fill-rule="nonzero" opacity="1" stroke="none"/>
</g>
<clipPath id="ArtboardFrame">
<rect height="180" width="180" x="0" y="0"/>
</clipPath>
<g clip-path="url(#ArtboardFrame)" id="Shirt" vectornator:layerName="Shirt">
<path d="M44.0384 132.446C44.0384 132.446 34.0298 130.087 25.0999 132.707C16.1701 135.326 13.8994 136.913 8.80184 144.756C2.82775 153.947-2.13684 178.956-2.13684 178.956L28.573 179.512L34.51 156.762C34.51 156.762 35.4864 158.233 35.8384 164.241C36.1904 170.248 35.9181 180.793 35.9181 180.793L145.839 179.943C145.839 179.943 146.919 168.116 143.528 159.543C140.137 150.971 139.503 150.446 131.98 145.813C124.457 141.181 110.628 139.493 110.628 139.493L44.0384 132.446Z" fill="#868ea3" fill-rule="nonzero" opacity="1" stroke="none"/>
<path d="M44.6958 117.153C44.6958 117.153 65.5121 116.526 79.9457 118.455C94.3792 120.383 94.7824 120.635 102.43 124.867C110.078 129.1 110.536 135.385 110.536 135.385L109.053 144.6L44.6958 117.153Z" fill="#868ea3" fill-rule="nonzero" opacity="1" stroke="none"/>
<path d="M44.432 117.061C44.432 117.061 59.6416 122.615 73.0303 128.366C86.419 134.116 97.9869 140.064 97.9869 140.064L92.2854 156.717C92.2854 156.717 80.0546 149.254 66.987 143.28C53.9195 137.307 44.1064 132.341 44.1064 132.341L44.432 117.061Z" fill="#929cb5" fill-rule="nonzero" opacity="1" stroke="none"/>
<path d="M109.045 131.181L98.7268 139.924L104.374 155.046L109.128 144.444C109.128 144.444 110.308 139.173 110.287 135.858C110.266 132.542 109.045 131.181 109.045 131.181Z" fill="#929cb5" fill-rule="nonzero" opacity="1" stroke="none"/>
<path d="M108.56 131.569C108.56 131.569 103.707 123.223 94.2628 121.159C84.8184 119.095 78.4935 118.746 66.1299 117.757C53.7664 116.767 45.108 117.272 45.108 117.272" fill="none" opacity="1" stroke="#929cb5" stroke-linecap="round" stroke-linejoin="round" stroke-width="1"/>
<path d="M98.388 140.562L97.95 180.297" fill="none" opacity="1" stroke="#929cb5" stroke-linecap="round" stroke-linejoin="round" stroke-width="1"/>
<path d="M-1.95382 175.337L30.0567 175.724L29.0245 179.736L-2.28228 178.92L-1.95382 175.337Z" fill="#929cb5" fill-rule="nonzero" opacity="1" stroke="none"/>
<path d="M120.819 158.48L122.942 180.356" fill="none" opacity="1" stroke="#929cb5" stroke-linecap="round" stroke-linejoin="round" stroke-width="1"/>
<path d="M99.8535 153.458C99.8535 152.702 100.467 152.089 101.223 152.089C101.979 152.089 102.593 152.702 102.593 153.458C102.593 154.214 101.979 154.828 101.223 154.828C100.467 154.828 99.8535 154.214 99.8535 153.458Z" fill="#f9f9f9" fill-rule="nonzero" opacity="1" stroke="#929cb5" stroke-linecap="round" stroke-linejoin="round" stroke-width="0.3"/>
<path d="M99.9567 164.118C99.9567 163.362 100.57 162.749 101.326 162.749C102.083 162.749 102.696 163.362 102.696 164.118C102.696 164.875 102.083 165.488 101.326 165.488C100.57 165.488 99.9567 164.875 99.9567 164.118Z" fill="#f9f9f9" fill-rule="nonzero" opacity="1" stroke="#929cb5" stroke-linecap="round" stroke-linejoin="round" stroke-width="0.3"/>
<path d="M99.8842 175.672C99.8842 174.916 100.497 174.303 101.254 174.303C102.01 174.303 102.623 174.916 102.623 175.672C102.623 176.429 102.01 177.042 101.254 177.042C100.497 177.042 99.8842 176.429 99.8842 175.672Z" fill="#f9f9f9" fill-rule="nonzero" opacity="1" stroke="#929cb5" stroke-linecap="round" stroke-linejoin="round" stroke-width="0.3"/>
<path d="M88.7066 151.346C88.7066 150.59 89.3654 149.977 90.1779 149.977C90.9905 149.977 91.6492 150.59 91.6492 151.346C91.6492 152.102 90.9905 152.716 90.1779 152.716C89.3654 152.716 88.7066 152.102 88.7066 151.346Z" fill="#f9f9f9" fill-rule="nonzero" opacity="1" stroke="#929cb5" stroke-linecap="round" stroke-linejoin="round" stroke-width="0.3"/>
<path d="M104.436 148.484C104.436 147.728 104.821 147.115 105.297 147.115C105.772 147.115 106.158 147.728 106.158 148.484C106.158 149.241 105.772 149.854 105.297 149.854C104.821 149.854 104.436 149.241 104.436 148.484Z" fill="#f9f9f9" fill-rule="nonzero" opacity="1" stroke="#929cb5" stroke-linecap="round" stroke-linejoin="round" stroke-width="0.3"/>
<path d="M54.7706 160.076L72.4453 160.076L72.4453 177.078L54.7706 177.078L54.7706 160.076Z" fill="#868ea3" fill-rule="nonzero" opacity="1" stroke="#929cb5" stroke-linecap="round" stroke-linejoin="round" stroke-width="1"/>
<path d="M54.7588 160.007L63.7519 167.2L72.391 160.171L54.7588 160.007Z" fill="#868ea3" fill-rule="nonzero" opacity="1" stroke="#929cb5" stroke-linecap="round" stroke-linejoin="round" stroke-width="1"/>
</g>
<g id="Calque-2" vectornator:layerName="Calque 2">
<path d="M49.8675 19.4516C49.8675 19.4516 51.1997 12.0541 55.1111 9.45277C59.0225 6.85146 64.1002 6.70454 64.1002 6.70454L106.942 9.77564C106.942 9.77564 113.63 9.34259 117.885 13.8973C121.51 17.7758 120.947 24.1681 120.947 24.1681L123.176 71.9563L45.2518 64.2209L49.8675 19.4516Z" fill="#c0996e" fill-rule="nonzero" opacity="1" stroke="none"/>
<path d="M57.5898 33.9455C59.2521 32.8231 62.2594 32.9644 62.2594 32.9644L106.987 32.2737C106.987 32.2737 109.641 32.8129 111.263 34.1311C112.885 35.4494 113.5 37.5291 113.5 37.5291C113.5 37.5291 113.532 57.2737 114.365 60.1514C115.233 63.1506 116.108 66.2321 116.567 70.5238C117.025 74.8155 115.373 78.2002 115.373 78.2002C115.373 78.2002 111.306 91.3248 107.847 100.775C104.389 110.225 104.073 104.375 101.54 116.001C99.0064 127.627 97.9504 140.094 97.9504 140.094C97.9504 140.094 84.6873 133.31 72.5075 128.019C60.3278 122.728 49.2314 118.929 49.2314 118.929C49.2314 118.929 50.9151 116.946 51.7084 107.736C52.06 103.655 50.5147 94.3317 50.8412 89.983C51.9046 75.8204 51.3486 75.8803 52.5409 62.7481C53.7332 49.6159 55.6103 37.4541 55.6103 37.4541C55.6103 37.4541 55.9275 35.0679 57.5898 33.9455Z" fill="#cea8a8" fill-rule="nonzero" opacity="1" stroke="none"/>
<path d="M53.3433 67.7304C53.3433 67.7304 52.618 64.7114 51.0261 63.5267C49.4341 62.342 48.8072 62.323 46.933 62.7581C45.0589 63.1931 44.6473 62.9879 43.5294 65.267C42.4115 67.5462 42.1177 68.409 41.8434 71.6754C41.5691 74.9418 41.7257 75.1672 42.4323 78.3327C43.1389 81.4983 43.9493 82.1926 45.3303 84.7705C46.7114 87.3483 46.5695 87.3079 47.9564 88.644C49.3432 89.9801 50.8779 90.1148 50.8779 90.1148" fill="#cea8a8" fill-rule="nonzero" opacity="1" stroke="#967d79" stroke-linecap="round" stroke-linejoin="round" stroke-width="1"/>
<path d="M47.7559 76.4371C47.7559 74.2481 49.5191 72.8357 50.083 72.8357C50.6469 72.8357 50.5878 75.2789 50.5878 77.4679C50.5878 78.7196 50.9401 80.8749 50.2951 81.7631C49.6501 82.6512 48.2493 81.0206 48.0078 81.0206C47.4439 81.0206 47.7559 78.6261 47.7559 76.4371Z" fill="#967d79" fill-rule="nonzero" opacity="1" stroke="none"/>
<path d="M49.1819 66.4332C49.1819 66.4332 47.0176 67.9562 46.2183 70.1731C45.4191 72.3901 45.6664 75.5906 45.6664 75.5906L45.3201 79.3852" fill="none" opacity="1" stroke="#967d79" stroke-linecap="round" stroke-linejoin="round" stroke-width="1"/>
<path d="M115.596 72.2757C115.596 72.2757 117.067 69.0965 119.194 67.8446C121.322 66.5928 122.487 66.3926 124.105 67.2682C125.723 68.1439 126.372 68.6026 126.979 71.4267C127.586 74.2509 127.551 75.1683 126.534 78.5649C125.517 81.9615 124.616 81.5193 122.912 85.0132C121.208 88.5071 121.621 91.4979 119.718 92.5404C117.815 93.5829 116.406 93.7852 114.284 93.345C112.162 92.9049 111.23 90.7798 111.23 90.7798" fill="#cea8a8" fill-rule="nonzero" opacity="1" stroke="#967d79" stroke-linecap="round" stroke-linejoin="round" stroke-width="1"/>
<path d="M115.995 77.3347C115.087 78.0166 116.982 79.8662 116.782 82.0772C116.582 84.2882 115.473 85.0788 115.611 86.4558C115.749 87.8328 116.134 87.4652 117.327 87.2062C118.52 86.9472 118.928 86.2407 119.851 84.9718C120.774 83.7029 120.901 83.6971 120.892 82.2338C120.883 80.7706 121.19 80.5833 119.933 79.2895C118.675 77.9958 116.903 76.6529 115.995 77.3347Z" fill="#967d79" fill-rule="nonzero" opacity="1" stroke="none"/>
<path d="M119.43 71.5986C119.43 71.5986 120.909 72.2934 121.909 73.7423C122.91 75.1911 123.149 75.7304 123.432 77.3941C123.716 79.0577 123.043 80.3969 123.043 80.3969" fill="none" opacity="1" stroke="#967d79" stroke-linecap="round" stroke-linejoin="round" stroke-width="1"/>
<path d="M59.1275 57.618C59.1275 57.618 59.3357 55.2364 64.8047 55.089C70.2738 54.9415 81.0037 57.0283 81.0037 57.0283" fill="none" opacity="1" stroke="#c0996e" stroke-linecap="round" stroke-linejoin="round" stroke-width="1"/>
<path d="M88.231 58.949C88.231 58.949 91.0006 57.1525 95.7375 57.509C100.474 57.8656 107.179 60.3751 107.179 60.3751" fill="none" opacity="1" stroke="#c0996e" stroke-linecap="round" stroke-linejoin="round" stroke-width="1"/>
<path d="M62.2803 65.8523C63.3513 67.1584 67.3985 68.3752 70.875 68.4844C74.3515 68.5936 75.3278 67.7084 76.1863 66.2892C77.0448 64.8699 76.7079 63.5646 74.3091 62.8074C71.9104 62.0501 69.5984 62.4988 66.5912 63.2601C63.584 64.0213 61.2094 64.5462 62.2803 65.8523Z" fill="#ffffff" fill-rule="nonzero" opacity="1" stroke="none"/>
<path d="M90.5594 68.6795C91.6303 69.9856 94.6132 71.3018 98.0897 71.411C101.566 71.5203 102.564 70.3076 103.423 68.8883C104.281 67.4691 100.618 64.9022 98.2193 64.1449C95.8205 63.3876 93.9086 63.0252 90.9014 63.7865C87.8942 64.5477 89.4884 67.3735 90.5594 68.6795Z" fill="#ffffff" fill-rule="nonzero" opacity="1" stroke="none"/>
<path d="M67.9097 65.0613C67.9097 63.8227 69.0111 62.8186 70.3698 62.8186C71.7284 62.8186 72.8298 63.8227 72.8298 65.0613C72.8298 66.2999 71.8086 68.1729 70.4499 68.1729C69.0913 68.1729 67.9097 66.2999 67.9097 65.0613Z" fill="#000000" fill-rule="nonzero" opacity="1" stroke="none"/>
<path d="M92.3092 66.2295C92.3092 64.9909 93.4106 63.9868 94.7692 63.9868C96.1279 63.9868 97.2293 64.9909 97.2293 66.2295C97.2293 67.4681 96.2457 70.1848 94.887 70.1848C93.5284 70.1848 92.3092 67.4681 92.3092 66.2295Z" fill="#000000" fill-rule="nonzero" opacity="1" stroke="none"/>
<path d="M93.3903 65.3504C93.3903 65.077 93.6421 64.8553 93.9528 64.8553C94.2634 64.8553 94.5152 65.077 94.5152 65.3504C94.5152 65.6238 94.2634 65.8455 93.9528 65.8455C93.6421 65.8455 93.3903 65.6238 93.3903 65.3504Z" fill="#ffffff" fill-rule="nonzero" opacity="1" stroke="none"/>
<path d="M69.2479 64.199C69.2479 63.9255 69.4997 63.7038 69.8104 63.7038C70.121 63.7038 70.3728 63.9255 70.3728 64.199C70.3728 64.4724 70.121 64.6941 69.8104 64.6941C69.4997 64.6941 69.2479 64.4724 69.2479 64.199Z" fill="#ffffff" fill-rule="nonzero" opacity="1" stroke="none"/>
<path d="M59.9929 65.5903C59.9929 65.5903 65.2805 63.2191 68.4953 62.5048C71.7102 61.7905 71.8546 62.0725 73.9604 62.4219C76.0662 62.7714 77.5371 65.2563 77.5371 65.2563" fill="none" opacity="1" stroke="#000000" stroke-linecap="round" stroke-linejoin="round" stroke-width="1"/>
<path d="M88.728 64.3779C88.728 64.3779 90.8595 63.4171 93.0719 63.22C95.2843 63.023 95.953 63.0156 97.5777 63.5898C100.901 64.7645 105.93 69.0081 105.93 69.0081" fill="none" opacity="1" stroke="#000000" stroke-linecap="round" stroke-linejoin="round" stroke-width="1"/>
<path d="M79.6994 60.4133L78.2322 73.5739C78.2322 73.5739 73.4783 77.6976 72.5071 80.833C71.536 83.9683 74.4966 84.3762 74.4966 84.3762L80.8139 84.5514L88.3903 84.7104C88.3903 84.7104 91.0391 84.3903 90.3122 81.2767C89.5852 78.1631 85.9582 73.9298 85.9582 73.9298L87.0488 60.4856" fill="#dcb2b2" fill-rule="nonzero" opacity="1" stroke="#967d79" stroke-linecap="round" stroke-linejoin="round" stroke-width="1"/>
<path d="M74.6891 82.9597C74.6891 82.2859 76.0614 80.5864 76.851 80.5864C77.6406 80.5864 79.3379 80.5577 79.3379 81.2316C79.3379 81.9054 79.6291 83.345 78.8395 83.345C78.0498 83.345 74.6891 83.6335 74.6891 82.9597Z" fill="#967d79" fill-rule="nonzero" opacity="1" stroke="none"/>
<path d="M83.569 81.9157C83.569 81.2419 84.3981 80.231 85.1877 80.231C85.9773 80.231 87.5521 82.1449 87.5521 82.8187C87.5521 83.4925 86.5616 83.8615 85.772 83.8615C84.9824 83.8615 83.569 82.5896 83.569 81.9157Z" fill="#967d79" fill-rule="nonzero" opacity="1" stroke="none"/>
<path d="M71.3595 97.2573C71.3595 97.2573 76.4279 94.8324 81.1448 94.7862C85.8617 94.7401 90.2273 97.0728 90.2273 97.0728L80.8846 95.9208L71.3595 97.2573Z" fill="#967d79" fill-rule="nonzero" opacity="1" stroke="#967d79" stroke-linecap="round" stroke-linejoin="round" stroke-width="1"/>
<path d="M71.8359 106.507C71.8359 106.507 72.7961 103.38 76.1563 102.42C79.5166 101.46 81.7907 101.429 85.2768 102.666C88.763 103.903 89.8617 106.848 89.8617 106.848" fill="none" opacity="1" stroke="#967d79" stroke-linecap="round" stroke-linejoin="round" stroke-width="1"/>
<path d="M57.3007 100.38L63.6621 109.62C63.6621 109.62 68.4586 114.282 75.0232 116.155C81.5878 118.027 89.9205 117.11 89.9205 117.11C89.9205 117.11 97.6467 114.503 102.518 108.779C107.388 103.056 108.213 97.6397 108.213 97.6397" fill="none" opacity="1" stroke="#967d79" stroke-linecap="round" stroke-linejoin="round" stroke-width="1"/>
</g>
<g clip-path="url(#ArtboardFrame)" id="Calque-1" vectornator:layerName="Calque 1">
<path d="M3.05404 189.57C-2.39145 187.926-0.400665 179.118-0.400665 179.118L71.3775 149.283C71.3775 149.283 74.961 148.591 79.9218 142.806C81.6976 140.736 81.7661 136.891 84.0228 133.424C87.9046 127.461 88.2492 129.141 90.9592 124.939C93.6693 120.737 91.4841 117.591 94.2557 116.552C97.2357 115.435 100.973 115.806 99.8915 121.193C98.8098 126.58 94.3526 131.067 94.3526 131.067C94.3526 131.067 95.3897 129.213 102.217 132.428C109.274 135.752 104.733 135.021 105.913 144.514C107.092 154.006 100.539 164.378 100.539 164.378C100.539 164.378 73.7897 165.871 72.8767 165.992C59.3896 167.773 50.5294 179.593 26.7187 186.129C15.8343 189.117 8.49953 191.213 3.05404 189.57Z" fill="#cea8a8" fill-rule="nonzero" opacity="1" stroke="#967d79" stroke-linecap="round" stroke-linejoin="round" stroke-width="1"/>
<path d="M94.1854 140.775C94.1854 140.775 98.1291 141.861 99.9513 141.578C100.824 141.442 101.632 141.299 102.329 141.166C103.841 140.877 104.832 140.638 104.832 140.638" fill="none" opacity="1" stroke="#967d79" stroke-linecap="round" stroke-linejoin="round" stroke-width="1"/>
<path d="M93.6282 149.421C93.6282 149.421 94.3012 150.159 98.7866 150.373C103.272 150.587 105.134 149.613 105.134 149.613" fill="none" opacity="1" stroke="#967d79" stroke-linecap="round" stroke-linejoin="round" stroke-width="1"/>
<path d="M92.9502 158.57C92.9502 158.57 95.8037 159.404 96.6853 159.235C100.336 158.533 103.414 156.758 103.414 156.758" fill="none" opacity="1" stroke="#967d79" stroke-linecap="round" stroke-linejoin="round" stroke-width="1"/>
<path d="M94.2503 131.443C94.2503 131.443 95.7531 133.128 97.6363 134.518C99.5195 135.909 101.664 135.993 100.778 136.904C99.8917 137.814 99.2903 136.945 97.1296 136.324C94.9689 135.702 94.1196 134.728 94.1196 134.728L94.2503 131.443Z" fill="#967d79" fill-rule="nonzero" opacity="1" stroke="#967d79" stroke-linecap="round" stroke-linejoin="round" stroke-width="1"/>
<path d="M95.0351 118.264C95.9154 117.493 96.9631 117.434 97.4176 118.392C97.8721 119.35 96.4185 122.116 96.4185 122.116L93.8965 121.48C93.8965 121.48 94.1549 119.036 95.0351 118.264Z" fill="#dcb2b2" fill-rule="nonzero" opacity="1" stroke="none"/>
</g>
<g clip-path="url(#ArtboardFrame)" id="Computer" vectornator:layerName="Computer">
<path d="M141.678 34.3656L127.885 158.233L126.089 150.982L138.985 39.4155L141.678 34.3656Z" fill="#d9d1c7" fill-rule="nonzero" opacity="1" stroke="none"/>
<path d="M185.626 38.5837L141.369 34.3519L127.576 158.209L139.322 159.808C139.81 159.897 140.405 160.104 140.831 160.529C141.37 161.065 141.711 161.716 141.709 162.21L141.971 177.737C141.971 177.737 141.98 178.802 142.448 179.359C142.915 179.915 143.841 179.964 143.841 179.964L156.124 180.032C156.135 181.663 155.985 181.66 157.947 181.699L162.592 181.707C164.435 181.663 164.464 181.694 164.471 180.038L185.736 180.082L185.626 38.5837Z" fill="#d3c9bf" fill-rule="nonzero" opacity="1" stroke="none"/>
<path d="M149.6 35.4325L136.522 148.404C136.41 149.313 136.458 149.392 137.632 149.514L149.362 150.934C150.615 151.114 151.708 152.218 151.829 153.405L152.734 179.398" fill="none" opacity="1" stroke="#63524a" stroke-linecap="square" stroke-linejoin="round" stroke-width="1"/>
<path d="M159.489 166.41L186.32 166.415" fill="none" opacity="1" stroke="#281a0e" stroke-linecap="round" stroke-linejoin="round" stroke-width="1"/>
<path d="M182.664 165.794L185.813 165.794L185.813 167.034L182.664 167.034L182.664 165.794Z" fill="#a2938c" fill-rule="nonzero" opacity="1" stroke="none"/>
<path d="M169.39 165.786L172.539 165.786L172.539 167.03L169.39 167.03L169.39 165.786Z" fill="#a2938c" fill-rule="nonzero" opacity="1" stroke="none"/>
<path d="M159.485 168.256L186.316 168.262" fill="none" opacity="1" stroke="#281a0e" stroke-linecap="round" stroke-linejoin="round" stroke-width="1"/>
<path d="M182.66 167.645L185.809 167.645L185.809 168.881L182.66 168.881L182.66 167.645Z" fill="#a2938c" fill-rule="nonzero" opacity="1" stroke="none"/>
<path d="M169.385 167.633L172.535 167.633L172.535 168.877L169.385 168.877L169.385 167.633Z" fill="#a2938c" fill-rule="nonzero" opacity="1" stroke="none"/>
<path d="M159.505 170.221L186.336 170.227" fill="none" opacity="1" stroke="#281a0e" stroke-linecap="round" stroke-linejoin="round" stroke-width="1"/>
<path d="M182.68 169.604L185.829 169.604L185.829 170.846L182.68 170.846L182.68 169.604Z" fill="#a2938c" fill-rule="nonzero" opacity="1" stroke="none"/>
<path d="M169.406 169.597L172.555 169.597L172.555 170.841L169.406 170.841L169.406 169.597Z" fill="#a2938c" fill-rule="nonzero" opacity="1" stroke="none"/>
<path d="M159.527 172.34L186.357 172.345" fill="none" opacity="1" stroke="#281a0e" stroke-linecap="round" stroke-linejoin="round" stroke-width="1"/>
<path d="M182.702 171.724L185.851 171.724L185.851 172.965L182.702 172.965L182.702 171.724Z" fill="#a2938c" fill-rule="nonzero" opacity="1" stroke="none"/>
<path d="M169.427 171.716L172.576 171.716L172.576 172.96L169.427 172.96L169.427 171.716Z" fill="#a2938c" fill-rule="nonzero" opacity="1" stroke="none"/>
<path d="M159.525 174.275L186.356 174.28" fill="none" opacity="1" stroke="#281a0e" stroke-linecap="round" stroke-linejoin="round" stroke-width="1"/>
<path d="M182.7 173.664L185.849 173.664L185.849 174.899L182.7 174.899L182.7 173.664Z" fill="#a2938c" fill-rule="nonzero" opacity="1" stroke="none"/>
<path d="M169.426 173.651L172.575 173.651L172.575 174.895L169.426 174.895L169.426 173.651Z" fill="#a2938c" fill-rule="nonzero" opacity="1" stroke="none"/>
</g>
<g clip-path="url(#ArtboardFrame)" id="Mouse" vectornator:layerName="Mouse">
<path d="M84.1179 173.233L96.1266 167.778L124.863 174.329L124.785 180.435L84.2084 180.119L84.1179 173.233Z" fill="#d3c9bf" fill-rule="nonzero" opacity="1" stroke="none"/>
<path d="M96.0501 167.76L113.451 167.54L139.222 173.513L124.939 174.406L96.0501 167.76Z" fill="#a2938c" fill-rule="nonzero" opacity="1" stroke="none"/>
<path d="M139.151 173.514L124.869 174.385L124.777 180.462L139.421 179.584L139.151 173.514Z" fill="#d9d1c7" fill-rule="nonzero" opacity="1" stroke="none"/>
<path d="M124.871 173.651L133.624 173.145L124.833 170.93L117.166 171.846L124.871 173.651Z" fill="#d3c9bf" fill-rule="nonzero" opacity="1" stroke="none"/>
<path d="M117.181 171.848L117.175 172.175L124.866 173.981L124.868 173.653L117.181 171.848Z" fill="#d9d1c7" fill-rule="nonzero" opacity="1" stroke="none"/>
<path d="M133.599 173.416L133.594 173.139L124.848 173.656L124.849 173.976L133.599 173.416Z" fill="#d9d1c7" fill-rule="nonzero" opacity="1" stroke="none"/>
<path d="M131.309 178.172C131.309 177.454 131.909 176.871 132.648 176.871C133.388 176.871 133.988 177.454 133.988 178.172C133.988 178.891 133.388 179.473 132.648 179.473C131.909 179.473 131.309 178.891 131.309 178.172Z" fill="#63524a" fill-rule="nonzero" opacity="1" stroke="none"/>
<path d="M131.655 178.201C131.655 177.619 132.14 177.148 132.739 177.148C133.338 177.148 133.823 177.619 133.823 178.201C133.823 178.782 133.338 179.254 132.739 179.254C132.14 179.254 131.655 178.782 131.655 178.201Z" fill="#a2938c" fill-rule="nonzero" opacity="1" stroke="none"/>
<path d="M131.95 178.211C131.95 177.732 132.35 177.344 132.843 177.344C133.336 177.344 133.736 177.732 133.736 178.211C133.736 178.69 133.336 179.078 132.843 179.078C132.35 179.078 131.95 178.69 131.95 178.211Z" fill="#63524a" fill-rule="nonzero" opacity="1" stroke="none"/>
<path d="M162.494 176.021L165.312 176.021L165.312 177.242L162.494 177.242L162.494 176.021Z" fill="#281a0e" fill-rule="nonzero" opacity="1" stroke="none"/>
<path d="M162.991 176.235L164.838 176.235L164.838 177.048L162.991 177.048L162.991 176.235Z" fill="#d3c9bf" fill-rule="nonzero" opacity="1" stroke="none"/>
<path d="M132.896 178.236C132.896 178.236 134.789 177.581 136.23 177.831C137.691 178.084 138.11 178.592 139.083 178.778C141.543 179.248 142.563 179.266 145.321 179.344C148.079 179.421 148.374 179.176 149.751 179.142C151.84 179.092 151.838 179.704 154.464 179.962C157.09 180.22 157.903 180.947 160.256 180.174C162.61 179.402 163.879 176.872 163.879 176.872" fill="none" opacity="1" stroke="#63524a" stroke-linecap="round" stroke-linejoin="round" stroke-width="1"/>
</g>
<g clip-path="url(#ArtboardFrame)" id="christmas" vectornator:layerName="christmas">
<path d="M139.196 56.2573L139.196 59.2261L137.255 56.9859L137.407 57.5325L136.919 56.9952L137.542 59.0742L135.847 57.7474L136.169 58.3361L135.626 57.9347L137.033 60.5462L134.158 59.332L135.916 61.1617L133.216 60.5662L135.613 62.2215L132.279 62.0682L135.031 63.3125L131.978 63.6974L135.35 64.528L133.07 65.3854L132.189 65.7062L132.008 65.7861L134.926 65.7757L132.611 67.0875L133.03 67.0286L132.526 67.3117L136.077 66.7011L133.663 68.9857L136.284 67.9037L134.702 70.049L136.785 68.7378L135.675 71.0614L137.944 69.0197L137.21 71.8679L139.336 69.1025L139.448 72.3138L139.501 72.1707L139.507 72.343L140.62 69.7969L141.218 72.2872L141.26 72.4168L141.94 68.9916L143.613 71.9402L143.399 69.1802L145.186 71.1992L144.556 69.0985L146.311 70.4306L145.113 68.158L147.647 69.446L145.537 66.9102L149.112 67.7328L148.799 67.5055L148.972 67.5547L146.813 66.0711L149.743 66.1757L149.817 66.1763L146.668 64.7542L150.258 64.0841L147.213 63.548L150.17 62.4567L147.089 62.4466L149.487 61.0614L146.829 61.49L148.876 59.8101L145.733 60.888L147.724 58.2436L146.962 58.7017L147.411 58.0952L145.403 59.3831L146.476 57.1979L146.12 57.53L146.249 57.2128L143.872 59.3829L144.43 56.2965L142.861 58.6356L142.792 55.8624L141.516 58.8785L140.812 55.9065L140.269 58.5528C140.269 58.5528 139.196 56.2573 139.196 56.2573Z" fill="#d0d0d0" fill-rule="nonzero" opacity="1" stroke="none"/>
<path d="M59.7151-4.08787C58.4562-5.57686 57.0583 0.228116 56.2515 2.72388C55.3294 5.57557 54.3093 8.35545 53.1559 11.1289C51.9471 14.0359 48.827 16.1557 47.8289 18.6845C47.4199 19.7211 48.3276 21.2957 49.2317 22.1815C51.019 23.9327 53.2023 25.1876 55.3462 26.4995C57.3943 27.7522 59.4471 28.9638 61.7176 29.8292C64.7119 30.9703 67.5946 32.3616 70.7536 33.0898C74.483 33.9534 78.1517 35.0133 81.9566 35.584C84.6952 35.9896 87.413 36.4139 90.1999 36.4801C95.0027 36.6005 99.8453 36.8005 104.614 36.3254C107.742 36.0104 110.903 35.538 113.937 34.6951C115.149 34.3556 117.774 34.6924 117.371 33.7828C115.114 28.7221 110.38 22.0237 106.52 16.4421C104.258 13.1713 102.326 9.4715 99.5622 6.57056C98.3342 5.28198 96.8243 3.86351 95.1989 3.3367C92.0782 2.32537 88.6309 2.48854 84.9594 2.4531C79.2179 2.39789 72.722 0.585207 67.2427-1.17241C64.679-1.9947 61.141-2.40091 59.7151-4.08787Z" fill="url(#LinearGradient)" fill-rule="evenodd" opacity="1" stroke="none"/>
<path d="M44.219 13.3281C44.0611 14.0017 44.7603 16.9983 43.96 15.9308C43.0858 14.7294 42.4893 14.072 42.22 14.0708C42.2365 14.6286 43.4569 17.2054 41.8928 15.3519C41.0241 14.49 41.3366 15.2339 41.17 15.284C41.3954 16.0477 43.2742 18.4291 41.4609 17.1999C41.183 16.2941 40.356 16.8926 39.8353 16.4659C41.3158 17.3098 40.571 18.9579 39.734 17.1235C39.5969 16.3181 39.4318 18.2908 39.0423 17.6579C40.4485 18.5051 39.1656 20.104 38.4573 18.2297C37.6982 17.1335 37.854 17.8832 37.6142 17.8016C38.3343 19.5432 38.0855 19.7827 36.7608 18.3544C36.5137 18.4057 36.2681 18.4843 37.1473 19.9422C38.5193 21.8316 36.4834 20.3706 35.5048 19.9497C34.0913 19.2275 37.8241 22.2103 36.1274 21.4904C34.3201 20.8326 33.9447 20.9229 35.6426 22.096C37.5562 23.2632 34.5975 22.4573 33.7553 22.5088C32.8458 22.5447 36.6813 23.7879 35.5981 23.9053C34.3073 24.031 32.2001 24.0741 34.5968 24.573C36.7187 24.9274 36.0769 25.3735 34.3598 25.8546C32.2371 26.4267 34.694 26.279 35.5996 26.3528C36.2053 26.5607 33.5456 27.6287 33.8401 27.8541C34.6261 27.9254 37.578 26.8633 36.6964 27.8089C34.6445 27.3457 37.2871 28.2884 35.3924 29.1761C34.0792 29.8985 37.9058 29.0299 36.0635 30.5774C36.0884 30.2578 38.6729 29.6209 36.9048 30.934C34.7175 31.6456 36.4076 31.1824 36.8848 31.8324C39.0129 30.9238 37.1808 32.3772 36.0762 32.8504C35.8726 33.2159 37.7853 32.7652 38.918 32.63C39.6578 32.6594 36.9843 34.6247 37.3046 34.7732C38.4945 34.2593 40.2535 33.2672 38.7068 35.0571C37.0172 37.216 40.1769 34.1388 39.8368 35.0835C39.1912 36.5267 38.7712 37.6283 40.2309 35.8788C41.4844 34.5083 40.7634 35.7453 40.7337 36.7441C40.0901 38.9776 41.339 36.6094 41.9447 35.8049C43.211 36.2568 41.103 37.1664 41.2253 37.339C42.9994 35.9844 42.3141 39.4935 42.8261 37.9461C43.3414 36.0343 44.6051 37.6414 42.9477 38.4634C41.2643 39.8603 44.4236 38.0745 44.2947 38.4502C45.4735 37.357 42.411 41.0928 43.8454 39.8982C45.5848 38.3422 44.9849 39.6928 44.3739 41.0556C44.2877 41.7362 46.6409 38.3249 46.1823 39.8724C45.945 41.0932 45.3635 43.1387 46.5197 41.0139C47.3882 39.3504 47.8209 39.2874 47.7079 41.228C47.6639 43.2589 47.996 42.6508 48.4628 41.0636C48.9 38.9305 49.1037 42.2281 49.2327 42.0305C49.3736 43.8037 49.6789 41.1424 51.2706 42.0959C51.0149 42.7128 49.486 43.2725 49.4848 43.6101C50.2694 43.6803 53.2267 42.6229 52.3377 43.5613C51.6955 44.3186 49.619 46.0694 51.7573 44.8987C53.812 43.6527 52.1261 45.5555 51.6231 46.462C52.5979 45.8248 54.105 44.5791 52.9449 46.5603C51.8856 48.6123 53.7487 46.2516 54.4232 45.6862C54.8058 45.6308 53.4928 49.2476 54.3226 47.965C54.8996 47.3719 56.0793 44.5637 55.914 46.6963C56.0358 47.5618 55.9044 50.2239 56.4464 48.0971C56.9102 46.0279 57.2394 46.7389 57.5218 48.4136C57.8488 50.2438 57.9059 47.1805 58.0919 46.5964C58.1267 44.5771 59.0495 47.5771 59.5469 48.1686C60.2171 49.5837 59.5193 46.5376 59.5688 45.9253C60.1322 46.4805 61.8062 49.1447 61.0124 47.1219C60.3796 45.2978 60.9927 46.429 61.9039 46.995C61.7929 48.7427 63.8475 45.8174 63.7644 46.7861C63.1201 48.2305 62.6999 49.3314 64.1496 47.5731C65.5612 45.7047 64.5888 48.3379 64.5049 49.2941C64.5945 49.7144 65.7699 47.5068 66.2915 46.8835C66.3956 47.9144 66.3955 49.7337 66.572 50.2181C66.9303 49.7112 67.4059 46.632 67.6761 48.4325C67.9696 49.7419 68.2888 51.1107 68.3879 48.9551C68.5099 47.4154 68.6912 46.2128 69.4456 48.2826C70.4951 50.0622 69.745 49.7921 70.9999 48.7442C72.4516 48.9677 70.1687 51.1768 72.2635 49.4583C73.8907 47.9522 71.3883 51.8752 72.2757 51.0854C73.1726 50.1818 74.4913 48.4942 73.7213 50.7321C73.061 52.9715 73.9076 51.5926 74.6848 50.3699C75.6383 48.3744 75.2707 51.2965 75.4717 52.0971C75.4646 53.9281 76.1192 50.9621 76.4456 50.3542C76.7139 50.4214 77.0397 53.4713 77.2314 52.5568C77.5052 51.886 77.3581 48.8282 77.9512 49.9743C78.3625 50.5117 79.5435 53.5655 79.2409 51.7673C79.0396 50.4126 78.8151 49.0018 79.9613 50.8551C80.1674 51.3928 80.9394 52.2142 80.6228 50.7053C82.6836 49.9078 79.7895 53.1646 81.465 51.7029C83.2675 50.0988 82.1657 52.0555 81.7497 53.1821C82.1696 53.0835 84.132 50.2186 83.5749 52.0143C83.2279 53.5312 82.9767 54.7966 84.0771 52.7769C85.0078 50.8415 85.1773 51.7469 85.1472 53.3713C85.0756 55.5785 85.5405 54.0885 85.9689 52.8235C86.39 51.2441 86.5706 54.1727 86.8834 54.7487C87.0872 53.9967 87.2242 52.45 87.4034 51.3969C87.8931 52.195 88.7222 54.0913 89.0162 54.2534C88.7067 53.1144 88.738 51.0384 89.8452 52.9988C90.4037 54.2348 90.032 52.8063 91.1008 52.6569C91.2501 53.9247 90.2667 54.9423 91.8856 53.221C93.2741 51.3811 92.2597 54.0787 92.1998 54.976C92.3641 55.218 93.4806 53.1379 94.014 52.4896C94.1103 53.5601 94.1403 55.0709 94.2786 55.8672C94.6811 55.1644 95.1965 52.1466 95.4567 54.2746C95.8139 56.3647 96.0295 55.7595 96.1842 53.9857C96.1797 51.707 96.8405 53.2517 97.4456 54.4732C98.3656 56.6659 97.8582 54.2265 97.7857 53.196C97.5627 51.8639 99.6095 55.6071 99.3622 54.5121C98.8871 52.9811 98.7201 52.5183 99.6434 53.3957C101.233 55.2382 99.1184 52.0227 101.185 52.9018C100.433 54.196 99.9371 54.8801 101.616 53.5439C102.914 52.421 100.328 56.5085 101.599 55.1246C102.644 53.9693 103.612 52.9564 102.878 55.108C102.187 57.4122 103.302 55.3881 103.983 54.4091C104.876 52.6516 104.44 55.7794 104.667 56.4769C104.706 57.8741 105.349 54.9828 105.661 54.4428C105.907 54.9442 106.289 57.9768 106.444 56.5669C106.719 55.8958 106.546 52.7037 107.231 54.3595C107.673 54.9982 108.806 57.8927 108.396 55.7479C108.014 53.9189 108.29 53.6828 109.344 55.327C110.756 57.4147 108.747 53.4065 109.598 54.1716C111.119 55.7109 110.904 55.0413 110.024 53.5327C109.093 52.0878 112.07 54.64 112.003 54.2017C111.714 53.5234 109.405 51.4685 110.662 51.8385C111.777 51.8412 113.21 53.186 113.663 52.3724C114.703 51.2029 115.647 50.2212 114.924 52.3613C114.24 54.6635 115.381 52.576 116.042 51.6346C116.919 49.9218 116.492 53.0628 116.727 53.7259C116.776 55.12 117.416 52.2455 117.734 51.7117C117.975 52.1908 118.354 55.2323 118.503 53.7928C118.775 53.1383 118.591 49.9575 119.286 51.634C119.732 52.2634 120.878 55.1461 120.462 52.995C120.079 51.1583 120.37 50.9652 121.408 52.5987C122.791 54.6556 120.771 50.5954 121.619 51.3617C123.125 52.8817 122.998 52.3192 122.08 50.7515C121.151 49.3138 124.128 51.866 124.061 51.4275C123.771 50.7496 121.465 48.6938 122.719 49.065C123.572 49.2359 126.198 50.3294 125.033 49.4398C123.863 48.5913 122.601 47.7083 124.842 48.2007C127.211 48.6456 124.491 47.5573 123.689 47.0462C122.338 46.4123 125.564 46.5202 126.208 46.2095C126.379 45.8951 122.338 45.6917 124.343 45.2045C126.183 44.6495 126.519 44.3317 124.377 44.4022C122.024 44.6648 125.679 43.27 125.353 43.0784C123.794 43.3954 122.444 43.6084 124.337 42.2929C125.868 41.0897 122.839 42.5912 122.183 42.6841C122.093 42.3162 124.197 39.9377 123.472 40.2813C123.998 39.2711 121.792 41.4595 121.912 40.7571C122.475 39.4978 122.755 39.1261 122.432 38.9728C121.585 39.861 119.472 38.3314 121.627 38.1222C123.858 37.5093 120.711 37.773 119.913 37.6562C119.856 37.3414 123.283 35.8828 120.895 36.4571C118.568 37.1391 120.477 35.8107 121.324 34.9859C120.582 35.0499 117.776 36.7357 118.935 35.2995C119.733 34.1393 120.261 33.2835 119.792 33.3965C119.774 33.0251 117.207 35.5266 118.596 33.2837C119.361 31.6965 118.607 32.3658 117.654 33.4135C116.272 35.3458 116.911 33.1112 117.011 31.9876C117.39 30.0294 115.958 33.7409 115.735 33.3722C115.594 32.622 115.78 29.5313 115.234 31.6647C114.799 33.1408 114.374 34.4063 114.121 32.174C113.769 29.8818 113.603 31.4441 113.429 32.8737C113.349 34.3554 112.286 30.1875 112.288 31.3901C112.174 32.1762 112.845 35.1164 111.761 33.2461C110.752 31.7559 110.635 32.0334 110.271 31.8449C110.814 33.3152 111.092 34.3697 109.64 32.7135C109.277 32.4556 109.36 32.8572 109.221 32.9193C110.813 34.1293 107.644 35.2658 108.909 33.3921C109.447 32.2032 108.332 33.5086 107.795 34.0108C106.426 35.9611 107.004 33.8033 107.118 32.6256C107.489 30.7642 106.269 33.7028 105.862 34.1892C105.706 33.5607 105.908 30.2933 105.423 32.092C105.04 32.9992 104.585 35.5384 104.345 33.2267C104.012 31.4182 103.747 31.0086 103.603 33.0912C103.586 35.2584 102.628 31.4459 102.412 31.7765C102.259 32.4607 102.996 35.5626 102.021 34.0181C101.098 32.7098 100.734 32.4713 100.351 32.2615C100.715 33.4548 101.474 35.2637 99.9333 33.4859C99.2708 32.8752 99.4996 33.4677 99.3533 33.5321C100.303 34.7068 97.3171 35.4651 98.8492 33.6773C99.4671 32.3306 98.3056 33.6187 97.474 34.4862C96.24 36.1159 97.2384 33.1256 97.16 32.3637C97.2181 31.2484 95.7219 35.4579 95.8112 33.725C95.7436 32.4769 95.7755 30.5257 95.207 32.8238C94.7437 34.8715 94.4085 34.3057 94.1321 32.5602C93.7805 30.2776 93.6773 33.1676 93.4781 34.0488C93.1863 33.9857 92.1841 30.5685 92.4047 32.5458C92.4572 33.7907 92.7623 35.7275 91.6228 33.7003C90.6718 32.2844 90.615 32.6845 90.4358 32.8137C91.1536 34.5576 90.9088 34.7934 89.5952 33.3539C89.4326 33.542 89.0269 33.3876 89.9664 34.9551C91.714 36.7335 88.5983 35.6272 89.1202 34.9381C89.7084 34.4105 87.6548 34.9279 87.5437 35.2394C85.6949 36.1422 87.9551 33.876 88.2183 33.1491C88.0054 33.0307 88.0245 32.6139 86.5776 33.7871C86.0154 33.978 87.7852 31.0675 86.869 31.9447C86.1765 32.4389 84.4686 35.0239 85.0178 32.963C85.258 31.446 85.4469 30.0827 84.4678 32.1883C83.6071 34.2611 83.9377 31.337 83.7655 30.5179C83.538 30.2417 82.9577 33.1942 82.6441 33.1149C82.3704 32.481 81.9697 29.2327 81.8136 31.0299C81.7293 32.9038 81.4026 33.0654 80.791 31.2252C80.1907 29.6601 80.6384 32.6801 80.5887 33.3582C80.9216 33.3871 78.9179 32.498 79.8905 31.6953C78.814 31.6032 78.9503 31.6385 78.5115 31.3178C79.2644 32.4357 76.5502 32.5405 78.173 30.9644C78.994 29.8183 78.4412 30.0357 78.022 30.1594C76.2872 31.7552 77.0493 30.2299 77.5978 28.9704C77.4657 28.7129 76.3552 30.0129 75.5576 30.7987C74.9814 31.1333 75.9213 28.0361 75.6047 28.0345C75.0492 28.8631 74.1123 31.3142 74.2959 28.9978C74.3504 26.8323 73.9933 27.6524 73.5294 29.253C73.0605 31.5264 72.8272 28.7701 72.5082 27.8502C72.1536 26.2826 72.2539 30.6849 71.8042 29.6139C71.2165 28.193 70.6718 26.9535 70.9559 29.2246C70.8233 31.2252 69.6008 28.6086 70.5998 28.6582C69.1264 28.9125 69.4191 28.6278 68.9437 28.419C69.4614 29.4008 67.3428 29.7277 68.935 28.0852C70.185 26.5282 68.7863 27.6175 69.2288 26.8643C67.7763 28.0946 67.3328 28.0691 68.2889 26.2992C68.7348 25.1753 67.4496 26.7155 66.6891 27.4549C65.6136 28.7353 66.6453 25.7149 66.5472 24.9996C66.3505 24.66 65.0297 28.424 65.1709 26.3733C65.143 24.8025 65.0537 23.6791 64.519 25.8463C64.0831 27.9687 63.7836 26.9833 63.509 25.4328C63.1603 23.0978 63.0538 25.7015 62.867 26.654C62.7431 27.0234 62.0829 25.0454 61.8657 24.7906C62.0279 24.8393 60.3222 25.4016 59.7403 25.263C60.6755 24.3958 62.3667 23.0772 60.1273 24.1027C58.044 25.1914 59.0798 23.8702 59.8838 22.7278C60.6436 21.7124 59.8002 22.2312 59.7734 22.0203C58.1506 23.4633 58.3129 22.683 59.0809 21.148C59.3332 20.2979 57.8488 22.1358 57.1395 22.7802C56.5624 23.1143 57.5052 20.0186 57.1856 20.0156C56.6222 20.8426 55.6693 23.3003 55.8538 20.9868C55.909 18.821 55.5519 19.6411 55.088 21.2417C54.6107 23.251 54.544 21.3376 54.1673 20.2622C54.6293 20.2503 53.7213 18.7395 53.6124 20.0661C52.6963 19.572 51.348 20.3797 52.4347 19.5487C54.4579 18.553 53.4656 18.6447 51.8114 18.9748C50.8935 19.0379 54.6876 16.6071 52.2633 17.6954C50.537 18.5087 50.1029 18.3228 51.4004 16.8001C52.4236 15.4654 51.6444 15.9399 51.5143 15.7498C49.8915 17.1929 50.0538 16.4126 50.8211 14.8779C51.0106 14.1358 49.7635 15.6326 49.0005 16.3696C48.1819 17.1262 49.111 14.3157 49.0291 13.5685C48.5131 14.1916 47.461 17.0695 47.6073 14.9167C47.6228 13.0221 47.4033 12.8654 46.9026 14.7822C46.459 17.0621 46.1989 15.2007 45.9099 13.9817C45.57 11.9044 45.4902 14.9384 45.2934 15.6914C44.9354 14.9039 44.5773 14.1163 44.219 13.3281ZM61.7733 25.1526C62.7401 27.0473 59.2539 26.1794 61.408 25.3815C61.5297 25.3049 61.6516 25.2291 61.7733 25.1526ZM49.8505 40.1811C51.8173 40.301 50.0127 42.4512 49.6897 41.3576C49.7434 40.9656 49.7971 40.5737 49.8505 40.1811ZM88.5166 35.4871C89.9825 36.2793 86.6544 36.4787 88.3888 35.6035L88.5166 35.4871ZM62.6339 45.8899C63.8149 47.2162 60.7054 47.2448 62.3245 46.0207L62.5173 45.9387C62.5173 45.9387 62.6339 45.8899 62.6339 45.8899ZM70.0485 47.2272C71.6583 47.8885 69.8822 49.9349 70.1042 47.7783C70.0855 47.5949 70.0672 47.4106 70.0485 47.2272ZM120.46 39.8301C122.658 38.7208 120.966 41.2484 120.408 40.2737C120.425 40.126 120.442 39.978 120.46 39.8301ZM111.218 50.8348C113.382 50.3379 111.735 52.4083 113.291 51.0075C114.453 51.1459 113.121 53.5697 112.485 51.8116C112.066 51.4825 111.641 51.1631 111.218 50.8348Z" fill="#d0d0d0" fill-rule="nonzero" opacity="1" stroke="none"/>
<path d="M46.5124 14.9003C46.3536 15.571 47.0183 18.4508 46.0955 17.0682C45.1948 15.8386 44.8049 15.6104 44.5987 15.7147C45.2423 17.3035 45.1004 17.7014 43.7964 16.3404C43.6955 16.5886 43.3309 16.4515 44.2192 17.8678C45.5636 19.8481 43.1037 17.5915 43.3822 18.1021C41.6802 17.4884 42.769 17.9075 43.2127 19.0904C42.1201 19.3889 42.1477 17.3244 41.8842 18.8794C41.1434 18.0903 43.025 21.1484 41.399 19.9301C40.588 18.85 40.0782 18.4349 40.2385 19.2149C41.0535 21.0363 40.1583 20.2681 39.1543 19.335C39.3879 19.9743 38.8204 19.57 39.7528 21.0099C41.0227 22.7147 38.8537 21.1977 37.9944 20.9076C37.1692 20.645 40.456 23.1114 38.5191 22.2998C36.5826 21.6353 37.0538 22.1201 38.4258 23.0349C39.8123 23.9159 36.8167 23.169 36.112 23.2736C36.5507 23.6655 39.3019 24.4661 37.9895 24.5509C36.5013 24.6578 35.2283 24.7819 37.3859 25.1925C39.5058 25.4676 38.207 25.9101 36.8691 26.3361C34.9523 26.8625 37.4847 26.6748 38.2814 26.7412C38.1161 27.11 35.9796 28.0442 36.6275 28.0886C37.3056 28.0406 40.2658 27.2887 38.9431 27.9872C37.5677 27.6316 39.4768 28.7637 37.6182 29.5247C37.663 29.4696 39.946 29.5302 38.369 30.6622C39.2002 29.5169 40.8273 30.0795 39.1178 30.8725C37.0016 31.5289 38.9881 31.0457 39.2496 31.6265C41.2693 30.7871 39.4366 32.1211 38.4352 32.5465C38.4205 32.8044 39.6469 32.5617 40.8998 32.3433C42.0834 32.1425 39.7566 33.7382 39.3984 34.3259C40.3067 34.0228 42.4883 32.6906 41.0043 34.3218C39.6111 35.9787 41.2912 34.6477 42.1492 34.1163C41.8317 34.9717 40.5782 37.1568 42.0512 35.4681C43.2571 34.2628 43.0143 34.5653 42.8735 35.6144C42.1984 37.6763 42.9978 36.4744 43.7717 35.3287C45.467 34.6232 43.0582 36.652 43.5439 36.3264C43.6436 35.8648 44.9548 37.1492 44.6372 37.3459C44.6114 35.7428 46.7258 36.0006 45.1416 37.1941C43.3989 38.7298 45.4227 37.2922 46.0631 37.5037C46.9672 36.4989 45.6011 38.4664 45.1883 39.037C46.1907 38.3746 47.6247 37.207 46.4751 39.0693C45.442 40.9414 47.2525 38.7736 47.8827 38.2812C48.244 38.2111 46.9374 41.533 47.7613 40.3013C48.314 39.7712 49.4694 37.2025 49.2771 39.1875C49.3511 40.2278 49.2587 42.2578 49.8408 40.2065C50.088 38.2148 50.9465 39.6237 50.4937 40.5574C51.2592 41.8756 50.5919 40.257 52.0622 40.5792C54.2741 40.3515 50.3143 41.8299 51.4294 41.7033C50.5282 42.2583 53.3588 41.4746 54.0406 41.4619C53.7029 41.9632 51.323 43.8335 52.5086 43.3138C54.0712 42.4855 54.5328 42.549 53.2785 44.0005C52.0552 45.5634 55.4306 42.3671 54.4984 43.8707C53.66 45.4465 53.7798 45.6714 55.0424 44.2838C56.3194 42.7541 55.1813 45.4505 55.1536 46.204C55.6536 45.7109 56.5756 43.9405 56.9553 43.9146C57.0949 44.5561 56.904 47.1851 57.2803 46.3836C57.7053 45.2923 58.178 43.5219 58.3764 45.666C58.6722 47.7633 58.8378 45.8008 59.0135 44.7931C59.0264 42.6476 59.778 44.8647 60.2863 45.646C61.0668 47.4022 60.4531 44.5801 60.4884 43.8907C61.1211 44.563 62.5482 46.74 61.7498 44.7005C61.2246 43.1581 62.1183 44.6068 62.9784 45.0327C62.2945 46.1933 65.259 43.2669 64.3735 44.7409C63.5353 46.3175 63.655 46.5416 64.917 45.1551C66.1945 43.6243 65.0567 46.3214 65.0289 47.075C65.529 46.5819 66.451 44.8115 66.8299 44.7858C66.9695 45.4273 66.7786 48.0563 67.1554 47.2539C67.5806 46.1633 68.0531 44.3922 68.2517 46.537C68.5468 48.6345 68.7132 46.6718 68.8888 45.6641C68.901 43.5188 69.6534 45.7357 70.1617 46.517C70.5122 48.3661 70.7235 45.0349 71.8613 46.5527C70.7182 48.2175 72.0588 46.9997 73.0533 46.4055C72.8761 47.0503 71.4728 49.4204 72.8272 47.8817C74.0981 46.3664 74.1657 46.9464 73.6525 48.5377C73.1284 50.2464 74.5976 47.54 75.0371 47.1155C75.604 46.5375 75.2464 49.0963 75.4464 49.761C75.7099 49.6777 76.2708 47.0258 76.5142 47.7966C76.761 48.6851 77.076 50.8904 77.2181 48.7579C77.368 47.3457 77.5546 46.1391 78.288 48.0721C79.1062 49.8886 79.1502 49.2108 78.9102 47.6187C78.7963 46.1839 79.663 48.3962 80.1124 48.4706C80.2205 49.3372 80.4383 46.4766 81.1042 48.1598C79.5112 50.056 81.8973 47.936 82.1495 48.1095C81.6761 49.1866 80.8121 50.8163 82.2781 49.1186C83.6396 47.4051 83.082 49.0434 82.8042 50.1984C82.4335 51.588 83.8901 48.9116 84.3358 48.4962C84.6625 48.6007 84.4617 50.7768 84.6487 51.1938C84.9586 51.1927 85.5699 47.8601 85.7814 49.6708C86.0503 51.1629 86.3165 51.8403 86.4638 49.9183C86.5266 47.9909 86.9951 48.4394 87.6457 49.9397C88.6432 52.0291 87.8279 49.6457 88.224 48.9053C88.8772 49.1777 89.5781 50.9079 89.4509 49.8311C90.9567 47.939 89.5546 51.6514 90.2309 50.5313C91.2328 49.4763 92.1546 48.5729 91.4249 50.5568C90.7303 52.6643 91.9086 50.5888 92.5006 49.8273C93.3792 48.2168 92.9109 51.1092 93.1114 51.7675C93.1489 52.8484 93.8041 50.2938 94.1083 49.8195C94.3453 50.3477 94.6735 53.2464 94.8375 51.5092C95.0746 50.6044 95.0434 48.1203 95.7785 50.1327C96.425 51.4285 96.9822 52.4353 96.6028 50.3838C96.1229 48.3238 97.4523 50.5953 98.0843 51.1989C97.81 50.2864 97.3676 48.7928 98.0732 49.7773C99.1723 50.7506 98.9166 50.9091 100.279 49.8611C101.316 49.0564 98.932 52.6381 100.126 51.389C101.129 50.3338 102.024 49.4544 101.3 51.4287C100.605 53.5363 101.784 51.4605 102.376 50.699C103.249 49.0823 102.799 51.9769 103.006 52.6333C103.052 53.7114 103.692 51.1855 103.991 50.7128C104.224 51.2342 104.55 54.1178 104.712 52.3811C104.951 51.4759 104.914 48.9934 105.662 51.0019C106.316 52.2876 106.886 53.306 106.505 51.2473C106.034 49.2003 107.364 51.5113 107.981 52.0958C107.509 50.7615 107.112 49.5388 108.58 51.0786C109.742 52.0483 106.994 48.586 108.385 49.5795C109.667 50.3535 110.609 50.8452 109.163 49.3383C107.699 47.9712 108.623 48.1281 110.076 48.6274C111.396 49.3898 111.675 48.5906 112.71 47.6443C113.658 46.6062 112.277 49.8609 112.647 49.7143C113.161 49.3014 114.336 46.6649 114.364 47.9151C114.498 48.5781 114.277 51.3939 114.807 49.6539C115.275 47.9809 115.631 47.8625 115.854 49.6539C116.148 51.4786 116.27 48.646 116.465 48.0473C116.546 46.3121 117.403 49.1418 117.857 49.6026C118.532 50.8737 117.454 46.9645 118.118 47.8037C118.997 48.9403 119.814 49.9614 119.017 47.968C118.404 46.5115 121.377 49.9992 119.998 47.8696C118.756 46.1254 120.051 46.9509 121.197 47.6246C121.929 47.9359 120.022 46.0335 119.702 45.4599C120.503 45.5993 122.368 46.2717 122.651 46.168C122.996 46.0136 119.9 44.5118 121.34 44.6985C122.577 44.8136 124.194 45.0403 122.203 44.2566C120.344 43.606 120.845 43.2844 122.577 43.1352C124.864 42.9405 122.427 42.6831 121.486 42.4445C120.513 42.2315 123.814 41.6116 123.467 41.4103C122.511 41.319 119.927 41.6534 121.974 40.7573C124.037 39.7689 121.698 40.3836 120.705 40.5015C121.196 39.9772 123.432 38.4364 121.539 39.285C119.942 40.0177 119.433 39.9381 120.718 38.5024C121.724 37.2722 120.938 37.7456 120.837 37.5632C119.437 38.9157 119.253 38.0623 120.306 36.9676C120.312 36.2882 120.167 36.995 118.897 36.6162C117.068 36.167 121.066 35.4684 119.947 35.4394C118.751 35.4084 116.708 35.601 118.796 34.7016C120.998 33.6443 117.622 34.6959 117.569 34.3919C118.7 33.46 119.708 32.5979 117.684 33.5036C115.689 34.5425 117.167 32.9593 117.758 32.0461C118.469 31.1558 117.256 32.1232 117.693 31.4762C116.322 32.5935 115.897 32.5899 116.85 30.958C117.274 29.9985 116.015 31.4024 115.327 32.0385C114.292 33.208 115.31 30.419 115.229 29.749C114.877 29.9027 113.72 32.8518 113.859 31.0829C113.896 29.3684 113.719 28.9675 113.173 30.8303C112.685 32.9677 112.485 30.822 112.208 29.8112C111.923 28.2681 111.874 31.8338 111.561 31.4924C111.08 30.4367 110.434 28.6641 110.698 30.848C111.063 32.9192 110.22 31.765 109.408 30.6894C108.81 30.0569 108.612 30.1833 109.127 31.6084C109.55 32.7897 107.263 30.0403 107.918 31.2907C107.331 30.5947 108.969 33.4291 107.06 32.613C107.774 31.2293 107.688 30.9386 106.635 32.0884C105.649 33.2241 105.127 33.5166 105.637 31.7893C106.166 29.6807 105.42 31.0285 104.749 32.1705C104.17 33.2212 104.72 29.3606 104.286 30.321C103.895 30.9789 103.371 33.7839 103.145 31.8109C102.86 30.3752 102.591 29.3915 102.425 31.4411C102.391 33.6099 101.536 30.2152 101.313 30.4519C101.186 31.2057 101.803 33.9569 100.763 32.2662C99.891 31.0918 99.4694 30.822 99.4491 31.2581C100.216 33.0415 99.653 32.8076 98.4653 31.6242C98.6479 32.3324 98.1905 31.5013 98.5047 32.752C96.7891 34.3379 98.0705 31.8108 98.024 31.6978C97.8032 31.6111 96.6059 32.9855 95.9212 33.5937C95.9014 32.972 96.6972 30.1459 96.0596 31.1963C95.3696 32.5044 94.8042 33.3329 94.98 31.3301C95.0818 29.1958 94.4162 31.8359 94.0543 32.5823C93.6628 33.5033 93.4933 30.8601 93.1957 30.2827C92.9568 31.1817 92.9267 33.7039 92.3064 31.6423C91.5879 29.5582 91.8883 31.8821 91.8703 32.8297C91.9702 34.0829 90.341 31.043 90.1829 31.3881C89.482 30.6793 90.6776 33.1229 90.1399 32.9239C88.9891 31.8138 88.9141 32.0936 88.8802 32.4034C89.0763 33.0638 90.6989 35.0519 89.2413 34.155C87.6399 33.5758 89.8385 32.9746 87.7456 33.4678C87.6645 33.6188 85.4781 34.6595 87.0922 32.9951C88.0013 31.8732 87.7889 31.8203 87.6004 31.7466C87.6543 31.3633 85.117 33.7091 86.4948 31.6414C87.2625 30.1975 86.4814 30.8784 85.6094 31.7798C84.2682 33.5409 84.8893 31.5179 85.0158 30.4479C85.3614 28.7937 83.9688 32.1517 83.7913 31.7484C83.6942 30.8467 83.8597 28.3364 83.2691 30.456C82.8099 32.1248 82.4481 32.3162 82.218 30.4938C81.9032 28.3376 81.737 30.9407 81.5175 31.8179C81.1533 31.2365 80.3376 28.6601 80.5676 30.6384C80.5823 32.0272 80.7048 32.6059 80.1757 31.9214C79.2905 30.5785 80.2538 31.1648 78.8886 30.3413C78.995 31.1285 78.572 29.9993 78.6246 31.1959C76.6407 31.8342 79.0741 29.3821 78.8285 29.3236C78.5963 29.2223 78.2294 29.3234 76.9929 30.2366C77.3763 29.3236 78.2565 27.7388 77.4217 28.5273C76.676 29.1283 75.1712 31.1745 75.8211 29.1203C76.2121 27.407 76.0584 27.1594 75.1934 28.8297C74.4182 30.4628 74.842 27.5715 74.6637 26.9507C74.279 27.4936 73.7439 30.3148 73.4722 29.134C73.1897 28.0222 72.8808 26.0406 72.7031 28.2602C72.6333 30.4194 72.0075 28.1434 71.5658 27.3328C71.4501 27.6505 71.9318 30.3916 70.7429 28.9846C72.0808 27.7098 70.1568 28.6921 69.8928 28.0575C69.7452 28.3329 69.669 27.7746 69.6104 28.7476C68.046 29.194 70.1585 27.2515 70.4003 26.6405C69.6437 27.0898 70.1395 26.2971 68.6759 27.4723C68.1523 27.6188 69.689 25.2849 69.0837 25.688C68.4655 26.0563 66.7499 28.5407 67.1528 26.9408C67.3273 25.7942 67.7665 23.9305 66.7783 25.9336C65.8984 27.9418 66.1552 25.6597 66.0619 24.7006C65.899 24.1123 65.2487 27.0991 64.9536 26.9468C64.6989 26.402 64.3606 23.3877 64.1839 25.1113C63.9142 26.5036 64.0076 27.0201 63.4322 25.768C63.1161 24.1632 62.937 25.2471 61.413 25.2836C60.2209 25.5329 64.0074 23.2114 61.9805 24.0831C60.6162 24.6416 59.4218 25.073 60.8684 23.52C61.9409 22.2024 61.2765 22.5455 61.0942 22.4192C59.558 23.7308 59.7147 23.041 60.4884 21.6206C60.6261 21.0253 59.4803 22.2927 58.7427 22.9854C57.9573 23.7016 58.8604 21.1613 58.7931 20.4926C58.2882 21.0577 57.2254 23.703 57.4072 21.7086C57.4923 19.7323 57.1648 20.2653 56.6666 21.8417C56.1918 23.6309 56.1664 21.8686 55.835 20.9406C56.23 20.6012 55.5734 19.9909 55.1144 20.7849C54.3526 20.292 53.0241 21.1838 54.3522 20.2446C56.3822 19.273 54.7551 19.6098 53.4587 19.8282C53.0006 19.755 56.1765 17.7843 54.286 18.6018C52.9261 19.1534 51.6948 19.609 53.1508 18.0466C54.1362 16.81 53.7323 16.8458 53.2377 17.0435C51.5853 18.4665 52.2063 17.2241 52.8269 15.9827C52.7057 15.7795 51.6256 16.9482 50.8869 17.6452C50.3281 17.9974 51.2862 15.136 50.9763 15.1807C50.425 15.9375 49.4738 18.2165 49.6869 16.0706C49.7935 13.923 49.3406 15.2272 48.8846 16.5451C48.4292 18.3307 48.2677 15.3898 47.9609 14.7835C47.6684 14.5623 47.7226 18.1849 47.1713 16.3418C46.9515 15.8614 46.7323 15.3807 46.5124 14.9003ZM42.8989 19.8805C43.2178 20.0223 42.9353 20.3387 42.8989 19.8805ZM55.4661 21.0795C55.691 23.2336 53.7736 21.1627 55.4661 21.0795ZM54.2657 21.5255C54.4832 22.2671 52.8913 21.5512 54.2657 21.5255ZM53.9511 22.7124C54.5202 22.3459 54.4278 23.8542 53.9511 22.7124ZM39.6878 28.7442C38.8251 29.8367 37.3323 29.3806 39.6878 28.7442ZM40.7283 30.2028C41.0135 30.1974 40.4919 30.3592 40.7283 30.2028ZM62.9491 25.1911C63.7619 26.9245 60.5609 26.1123 62.5887 25.4074C62.7093 25.3351 62.8292 25.2631 62.9491 25.1911ZM62.9787 26.6418C63.5333 28.16 61.9311 26.7363 62.9787 26.6418ZM61.4729 27.1824C61.5569 27.0891 61.5749 27.3749 61.4729 27.1824ZM60.9177 28.3443C61.0178 28.2111 61.0637 28.5452 60.9177 28.3443ZM68.8012 28.8925C69.0766 29.1095 68.5896 29.0365 68.8012 28.8925ZM70.0191 29.3808C70.352 29.7526 69.4688 29.6188 70.0191 29.3808ZM71.5637 29.5209C71.8852 30.3973 70.969 29.6547 71.5637 29.5209ZM51.4845 38.1973C51.8958 38.6302 51.1892 38.6918 51.4845 38.1973ZM51.3683 38.877C53.2389 38.9887 51.4286 40.9831 51.176 39.9484C51.2401 39.5912 51.3042 39.2341 51.3683 38.877ZM77.681 31.0864C78.1924 31.36 77.4611 31.8829 77.681 31.0864ZM77.5207 31.3095C77.8689 31.6623 76.9271 31.7643 77.5207 31.3095ZM52.8521 39.3074C54.0951 39.3668 52.6743 39.9682 52.8521 39.3074ZM78.9682 31.6277C79.5637 32.4611 78.249 31.9497 78.9682 31.6277ZM52.9553 40.5864C53.0925 40.5399 52.9264 40.7094 52.9553 40.5864ZM88.086 33.9947C89.3285 34.8151 86.1604 34.839 88.086 33.9947ZM62.8373 42.5194C64.9106 41.6483 63.2563 43.6901 62.8373 42.5194ZM61.9626 43.0131C63.5051 43.4 62.307 44.4469 61.9626 43.0131ZM88.807 34.7861C89.78 35.3361 87.9891 34.9131 88.807 34.7861ZM87.877 35.3469C88.9088 35.7204 86.8771 35.566 87.877 35.3469ZM64.1232 43.4561C63.8968 44.1225 63.3842 43.5713 64.1232 43.4561ZM63.3689 43.7645C64.528 44.9487 61.5455 45.0196 63.0879 43.8857L63.2664 43.8081C63.2664 43.8081 63.3689 43.7645 63.3689 43.7645ZM98.7629 32.7867C98.9021 32.951 98.3494 33.0535 98.7629 32.7867ZM97.3331 33.4036C97.6282 33.487 96.9657 33.744 97.3331 33.4036ZM98.9048 33.0642C100.683 34.8773 97.6346 33.9521 98.9048 33.0642ZM98.0922 34.2314C99.3888 35.0373 97.2682 34.6849 98.0922 34.2314ZM108.301 32.3768C108.442 32.6768 107.904 32.7153 108.301 32.3768ZM106.904 32.9337C107.316 33.1288 106.44 33.4163 106.904 32.9337ZM108.45 32.6766C109.725 33.9922 107.547 33.3003 108.45 32.6766ZM70.3691 44.859C71.9213 45.2373 70.2188 47.3884 70.4272 45.4917L70.3691 44.859ZM71.376 44.6948C72.357 45.0595 71.3315 45.8573 71.376 44.6948ZM72.1879 44.5672C72.6398 44.2885 72.2108 44.8863 72.1879 44.5672ZM107.694 33.7772C108.242 34.0816 107.36 34.0519 107.694 33.7772ZM107.131 34.5948C107.289 34.6527 106.913 34.7129 107.131 34.5948ZM72.5681 45.6614C71.9631 47.2938 71.1259 45.9686 72.5681 45.6614ZM80.4043 46.2243C81.7691 46.1945 80.6487 47.5664 80.4043 46.2243ZM81.5359 46.0467C81.6758 45.9368 81.576 46.1142 81.5359 46.0467ZM79.8676 46.8856C80.8418 47.3189 79.8475 48.1007 79.8676 46.8856ZM81.774 47.1849C81.3295 48.4462 80.4816 47.4179 81.774 47.1849ZM118.139 36.2527C118.024 36.6391 117.553 36.2739 118.139 36.2527ZM118.286 37.345C120.535 36.2088 118.351 38.8962 118.25 37.55L118.282 37.365C118.282 37.365 118.286 37.345 118.286 37.345ZM87.9993 48.4446C88.5869 48.8007 87.8319 49.2882 87.9993 48.4446ZM90.2732 48.0402C89.9521 48.9077 89.4914 48.156 90.2732 48.0402ZM89.0627 48.5344C90.1496 48.6406 89.2095 50.373 89.0627 48.5344ZM90.7458 48.7803C90.531 49.8919 89.858 49.0952 90.7458 48.7803ZM98.8622 47.973C100.936 47.1002 99.2806 49.1416 98.8622 47.973ZM97.9733 48.4228C99.5132 48.8398 98.3241 49.8815 97.9733 48.4228ZM110.522 45.2434C111.723 44.7996 111.574 45.5898 110.522 45.2434ZM100.149 48.9119C99.9217 49.5761 99.4092 49.0225 100.149 48.9119ZM99.4177 49.2099C100.502 50.4094 97.5864 50.4587 99.1126 49.3361L99.2922 49.2646C99.2922 49.2646 99.4177 49.2099 99.4177 49.2099ZM109.171 46.1848C111.466 45.2987 110.373 47.039 109.171 46.1848ZM111.637 46.2118C111.001 47.7866 109.475 46.6527 111.637 46.2118ZM109.299 47.3802C111.351 46.9257 109.773 48.777 111.32 47.4975C112.353 47.5095 111.055 49.8042 110.619 48.3326C110.186 47.9997 109.737 47.6954 109.299 47.3802ZM112.115 46.9737C111.922 47.9123 111.121 47.3454 112.115 46.9737Z" fill="#ffffff" fill-rule="nonzero" opacity="1" stroke="none"/>
<path d="M58.5792-3.12458C57.6009-5.00056 64.5415-10.3777 67.5914-12.8841C69.8005-14.7 72.1042-16.6824 74.7759-17.6592C80.3149-19.685 86.1271-21.4296 92.1486-21.5769C97.3799-21.7045 102.747-23.2637 107.884-22.6335C111.675-22.1676 115.297-20.7423 118.588-18.7566C121.95-16.7304 125.263-14.5389 128-11.8132C129.877-9.9449 131.79-8.10423 132.764-5.54846C135.655 2.04724 138.837 9.55497 141.279 17.3254C142.66 21.7151 145.119 26.0523 145.077 30.6748C144.989 39.524 142.553 48.2566 142.085 57.1194C141.921 60.176 143.94 64.2821 141.784 66.2425C140.494 67.4199 138.841 64.7615 137.543 63.8724C134.133 61.5385 132.523 57.6669 129.932 54.6014C125.272 49.0739 122.454 42.3993 118.86 36.2291C114.183 28.1967 108.244 20.4764 102.679 12.9874C100.241 9.7045 98.0011 5.54017 94.5152 3.7673C91.1342 2.04761 86.3263 3.18005 82.2837 2.72099C78.7214 2.31681 74.9854 2.00688 71.6646 0.839685C67.2373-0.715899 59.7629-0.856829 58.5792-3.12458Z" fill="url(#LinearGradient_2)" fill-rule="evenodd" opacity="1" stroke="none"/>
<path d="M139.039 56.1493L139.101 58.9009L137.361 56.7963L137.499 57.2997L137.075 56.782L137.642 58.7123L136.154 57.4637L136.435 58.0257L135.951 57.6295L137.252 60.068L134.71 58.9091L136.274 60.6248L133.903 60.0223L136.016 61.5917L133.11 61.4083L135.594 62.617L132.899 62.9066L135.83 63.7313L133.932 64.4387L133.127 64.7361L132.948 64.8232L135.489 64.8505L133.491 66.0165L133.888 65.9646L133.426 66.2265L136.5 65.7246L134.431 67.799L136.683 66.8552L135.365 68.792L137.184 67.6103L136.242 69.7391L138.186 67.8934L137.606 70.5035L139.401 67.9915L139.557 70.9592L139.589 70.8781L139.602 70.9931L140.526 68.656L141.093 70.9738L141.13 71.0889L141.664 67.9545L143.166 70.6793L142.944 68.1513L144.514 70.0393L143.934 68.0897L145.511 69.3582L144.416 67.2515L146.644 68.4605L144.758 66.0844L147.876 66.9225L147.599 66.7074L147.773 66.7566L145.799 65.3104L146.826 65.364L148.473 65.4943L145.729 64.1209L148.831 63.5546L146.167 62.9952L148.733 62.0491L146.028 62.0013L148.08 60.7712L145.796 61.1311L147.529 59.6042L144.829 60.5444L146.502 58.1176L145.86 58.5383L146.226 57.9815L144.527 59.1258L145.409 57.1425L145.091 57.439L145.207 57.1576L143.178 59.1247L143.611 56.2909L142.263 58.4428L142.154 55.8559L141.099 58.6058L140.444 55.8638L140.009 58.279C140.009 58.279 139.039 56.1493 139.039 56.1493Z" fill="#ffffff" fill-rule="nonzero" opacity="1" stroke="none"/>
<path d="M58.5792-3.12458C57.6009-5.00056 64.5415-10.3777 67.5914-12.8841C69.8005-14.7 72.1042-16.6824 74.7759-17.6592C80.3149-19.685 86.1271-21.4296 92.1486-21.5769C97.3799-21.7045 102.747-23.2637 107.884-22.6335C111.675-22.1676 115.297-20.7423 118.588-18.7566C121.95-16.7304 125.263-14.5389 128-11.8132C129.877-9.9449 132.911-8.27866 132.764-5.54846C132.355 1.83363 130.541 3.82378 128.961 7.68455C125.565 15.9612 127.593 24.9068 127.127 33.7752C126.969 36.8299 128.98 40.9323 126.832 42.8965C125.543 44.0739 123.888 41.4099 122.591 40.5264C119.179 38.187 118.97 32.6504 116.377 29.5793C111.717 24.0578 107.694 19.6123 102.743 13.2408C97.0149 5.86994 109.782 21.2359 104.217 13.747C101.779 10.4641 98.0011 5.54017 94.5152 3.7673C91.1342 2.04761 86.3263 3.18005 82.2837 2.72099C78.7214 2.31681 74.9854 2.00688 71.6646 0.839682C67.2373-0.715902 59.7629-0.856833 58.5792-3.12458Z" fill="url(#LinearGradient_3)" fill-rule="evenodd" opacity="1" stroke="none"/>
</g>
</svg>
